<?xml version="1.0" encoding="UTF-8" standalone="no"?>
<!-- Created with Inkscape (http://www.inkscape.org/) -->

<svg
   xmlns:dc="http://purl.org/dc/elements/1.1/"
   xmlns:cc="http://creativecommons.org/ns#"
   xmlns:rdf="http://www.w3.org/1999/02/22-rdf-syntax-ns#"
   xmlns:svg="http://www.w3.org/2000/svg"
   xmlns="http://www.w3.org/2000/svg"
   xmlns:sodipodi="http://sodipodi.sourceforge.net/DTD/sodipodi-0.dtd"
   xmlns:inkscape="http://www.inkscape.org/namespaces/inkscape"
   width="210mm"
   height="297mm"
   viewBox="0 0 210 297"
   version="1.1"
   id="svg8"
   inkscape:version="0.92.3 (2405546, 2018-03-11)"
   sodipodi:docname="logo-nobackground.svg"
   inkscape:export-filename="C:\Users\niclas\dev\vadret-assets\dist\rect993-4-8-2.png"
   inkscape:export-xdpi="23.74"
   inkscape:export-ydpi="23.74">
  <defs
     id="defs2" />
  <sodipodi:namedview
     id="base"
     pagecolor="#9d9d9d"
     bordercolor="#666666"
     borderopacity="1.0"
     inkscape:pageopacity="0"
     inkscape:pageshadow="2"
     inkscape:zoom="0.70000002"
     inkscape:cx="-1899.2884"
     inkscape:cy="468.59627"
     inkscape:document-units="mm"
     inkscape:current-layer="layer1"
     showgrid="false"
     inkscape:window-width="1853"
     inkscape:window-height="1016"
     inkscape:window-x="1147"
     inkscape:window-y="839"
     inkscape:window-maximized="1"
     showborder="false"
     showguides="false"
     inkscape:pagecheckerboard="true" />
  <metadata
     id="metadata5">
    <rdf:RDF>
      <cc:Work
         rdf:about="">
        <dc:format>image/svg+xml</dc:format>
        <dc:type
           rdf:resource="http://purl.org/dc/dcmitype/StillImage" />
        <dc:title />
      </cc:Work>
    </rdf:RDF>
  </metadata>
  <g
     inkscape:label="Layer 1"
     inkscape:groupmode="layer"
     id="layer1">
    <g
       id="g8045">
      <path
         style="opacity:1;fill:none;fill-opacity:1;stroke:none;stroke-width:0.49528855;stroke-linecap:butt;stroke-linejoin:miter;stroke-miterlimit:4;stroke-dasharray:none;stroke-dashoffset:0;stroke-opacity:1"
         d="m -397.38531,51.085327 h 150 V 201.08533 h -150 z"
         id="rect4547" />
      <g
         transform="matrix(1,0,0,1.0007723,-0.05552086,-0.75442837)"
         id="g6154">
        <path
           style="fill:#acb3c6;fill-opacity:1;stroke:none;stroke-width:0.28118959px;stroke-linecap:butt;stroke-linejoin:miter;stroke-opacity:1"
           d="m -322.81887,89.948398 c -0.19672,0.0018 -0.39383,0.0067 -0.59039,0.01538 -3.14517,0.137201 -6.25054,1.139167 -8.87285,2.881095 -4.47657,2.97365 -7.40485,8.163617 -7.61741,13.530047 -0.76756,-0.0453 -1.53793,-0.045 -2.30552,0.006 -3.91494,0.25985 -7.73729,1.79377 -10.73519,4.32493 -2.99793,2.53117 -5.15326,6.04791 -6.03186,9.87185 -0.43521,1.89441 -0.55406,3.85899 -0.36686,5.79349 a 21.86786,24.531171 0 0 1 2.20122,-0.12631 21.86786,24.531171 0 0 1 4.62095,0.56787 25.59971,28.717523 0 0 1 24.42889,-20.14681 25.59971,28.717523 0 0 1 17.66661,7.98096 19.070926,21.393594 0 0 1 2.95086,-0.2713 19.070926,21.393594 0 0 1 18.82212,18.02579 19.070926,21.393594 0 0 1 16.00311,13.73436 c 1.97851,-1.77176 3.61622,-3.90779 4.71486,-6.32348 1.62426,-3.57155 2.02969,-7.68123 1.15112,-11.50516 -0.87855,-3.82393 -3.03339,-7.34068 -6.0313,-9.87184 -2.99794,-2.53116 -6.82078,-4.06508 -10.73574,-4.32494 -2.6488,-0.17581 -5.32994,0.23254 -7.81729,1.15936 -0.0147,-1.28897 -0.22349,-2.56935 -0.66232,-3.78562 -0.56266,-1.55933 -1.49204,-2.99202 -2.72678,-4.09812 -1.23473,-1.10609 -2.77681,-1.87777 -4.41282,-2.14517 -1.37941,-0.22546 -2.80376,-0.0938 -4.15084,0.27899 -0.47652,0.13187 -0.9431,0.29491 -1.40099,0.48055 -0.3456,-2.70098 -1.28004,-5.32708 -2.73831,-7.626714 -1.68595,-2.658653 -4.06812,-4.874182 -6.85014,-6.347637 -2.60819,-1.381365 -5.56247,-2.105541 -8.51313,-2.077617 z"
           id="path6419-5"
           inkscape:connector-curvature="0" />
        <path
           style="opacity:1;fill:#f9f9f9;fill-opacity:1;stroke:none;stroke-width:0.33900881;stroke-linecap:butt;stroke-linejoin:miter;stroke-miterlimit:4;stroke-dasharray:none;stroke-dashoffset:0;stroke-opacity:1"
           d="m -327.80811,110.67574 a 24.087861,27.021547 0 0 0 -22.98619,18.95724 20.576404,23.082427 0 0 0 -4.34794,-0.53437 20.576404,23.082427 0 0 0 -20.57651,23.08223 20.576404,23.082427 0 0 0 9.46822,19.42921 h 83.85872 a 17.944649,20.130146 0 0 0 7.93285,-16.68437 17.944649,20.130146 0 0 0 -16.23862,-20.03443 17.944649,20.130146 0 0 0 -17.71085,-16.96138 17.944649,20.130146 0 0 0 -2.77628,0.25562 24.087861,27.021547 0 0 0 -16.6234,-7.50975 z"
           id="path825-9-5-5-5-6"
           inkscape:connector-curvature="0"
           inkscape:export-filename="C:\Users\niclas\dev\vadret-assets\dist\rect993-4-8-2.png"
           inkscape:export-xdpi="23.74"
           inkscape:export-ydpi="23.74" />
        <path
           style="fill:#f98412;fill-opacity:1;stroke-width:0.28032127"
           d="m -350.16161,81.873692 c -15.55911,0 -28.17228,12.613164 -28.17228,28.172278 0.005,7.72501 3.18271,15.1089 8.78852,20.42403 2.23377,-1.60048 4.709,-2.73058 7.30421,-3.33484 v -2.08269 c -0.19607,-2.02621 -0.0716,-4.08429 0.38436,-6.06851 0.92024,-4.0052 3.17758,-7.68844 6.31762,-10.3396 3.14,-2.65115 7.14351,-4.25785 11.24405,-4.53001 0.80396,-0.0534 1.61111,-0.0534 2.41506,-0.006 0.22263,-5.620821 3.28995,-11.056936 7.97875,-14.171552 0.68153,-0.452737 1.39409,-0.857423 2.13086,-1.212716 -5.11117,-4.413955 -11.63784,-6.845017 -18.39115,-6.850352 z"
           id="path2979-4-2"
           inkscape:connector-curvature="0"
           sodipodi:nodetypes="cccccccccccc" />
      </g>
    </g>
  </g>
</svg>
