<?xml version="1.0" encoding="UTF-8" standalone="no"?>
<!-- Created with Inkscape (http://www.inkscape.org/) -->

<svg
   xmlns:dc="http://purl.org/dc/elements/1.1/"
   xmlns:cc="http://creativecommons.org/ns#"
   xmlns:rdf="http://www.w3.org/1999/02/22-rdf-syntax-ns#"
   xmlns:svg="http://www.w3.org/2000/svg"
   xmlns="http://www.w3.org/2000/svg"
   xmlns:sodipodi="http://sodipodi.sourceforge.net/DTD/sodipodi-0.dtd"
   xmlns:inkscape="http://www.inkscape.org/namespaces/inkscape"
   width="210mm"
   height="297mm"
   viewBox="0 0 210 297"
   version="1.1"
   id="svg8"
   inkscape:version="0.92.3 (2405546, 2018-03-11)"
   sodipodi:docname="wsymb2_nearly_clear_sky.svg"
   inkscape:export-filename="C:\Users\niclas\dev\vadret-assets\dist\rect993-4-8-2.png"
   inkscape:export-xdpi="23.74"
   inkscape:export-ydpi="23.74">
  <defs
     id="defs2" />
  <sodipodi:namedview
     id="base"
     pagecolor="#9d9d9d"
     bordercolor="#666666"
     borderopacity="1.0"
     inkscape:pageopacity="0"
     inkscape:pageshadow="2"
     inkscape:zoom="1"
     inkscape:cx="-1532.3385"
     inkscape:cy="1136.9952"
     inkscape:document-units="mm"
     inkscape:current-layer="layer1"
     showgrid="false"
     inkscape:window-width="1853"
     inkscape:window-height="1016"
     inkscape:window-x="1147"
     inkscape:window-y="839"
     inkscape:window-maximized="1"
     showborder="false"
     showguides="false"
     inkscape:pagecheckerboard="true" />
  <metadata
     id="metadata5">
    <rdf:RDF>
      <cc:Work
         rdf:about="">
        <dc:format>image/svg+xml</dc:format>
        <dc:type
           rdf:resource="http://purl.org/dc/dcmitype/StillImage" />
        <dc:title />
      </cc:Work>
    </rdf:RDF>
  </metadata>
  <g
     inkscape:label="Layer 1"
     inkscape:groupmode="layer"
     id="layer1">
    <g
       id="wsymb2_nearly_clear_sky"
       inkscape:label="#g893">
      <rect
         ry="0"
         y="-48.275753"
         x="-439.40259"
         height="135.46666"
         width="135.46666"
         id="rect4547"
         style="opacity:1;fill:none;fill-opacity:1;stroke:none;stroke-width:0.44730067;stroke-linecap:butt;stroke-linejoin:miter;stroke-miterlimit:4;stroke-dasharray:none;stroke-dashoffset:0;stroke-opacity:1" />
      <g
         id="g887">
        <path
           style="fill:#f98412;fill-opacity:1;stroke-width:0.23542294"
           d="m -372.06199,-30.308818 c -2.28758,0 -4.12923,1.841644 -4.12923,4.129224 v 9.224469 h 8.25846 v -9.224469 c 0,-2.28758 -1.84165,-4.129224 -4.12923,-4.129224 z m -31.14427,12.896721 c -1.05553,0 -2.11105,0.404322 -2.91986,1.213102 -1.61755,1.617572 -1.61755,4.222121 0,5.839685 l 6.52303,6.5224847 5.83967,-5.8396828 -6.523,-6.5224869 c -0.80878,-0.80878 -1.86434,-1.213102 -2.91984,-1.213102 z m 60.73112,1.772628 c -1.0555,-2e-6 -2.11106,0.404321 -2.91984,1.213102 l -6.52251,6.5224865 5.83971,5.8396836 6.52247,-6.5224854 c 1.61758,-1.6175637 1.61758,-4.2221197 0,-5.8396847 -0.80878,-0.808781 -1.86434,-1.2131 -2.91983,-1.213102 z m -29.58685,6.1622217 a 27.341834,27.341834 0 0 0 -27.34185,27.3418343 27.341834,27.341834 0 0 0 1.01226,7.262145 24.768365,27.784928 0 0 1 23.53355,-19.1657476 24.768365,27.784928 0 0 1 17.0929,7.7217726 18.451602,20.698842 0 0 1 2.85448,-0.263025 18.451602,20.698842 0 0 1 10.14001,3.439516 27.341834,27.341834 0 0 0 -27.29135,-26.3364953 z m -44.04419,23.2126103 c -2.28758,0 -4.12922,1.841644 -4.12922,4.129224 0,2.287583 1.84164,4.129226 4.12922,4.129226 h 9.22447 v -8.25845 z m 78.86392,0 v 8.25845 h 9.22444 c 2.28758,0 4.12922,-1.841643 4.12922,-4.129226 0,-2.28758 -1.84164,-4.129224 -4.12922,-4.129224 z"
           id="rect3677"
           inkscape:connector-curvature="0" />
        <path
           style="opacity:1;fill:#f9f9f9;fill-opacity:1;stroke:none;stroke-width:0.33900881;stroke-linecap:butt;stroke-linejoin:miter;stroke-miterlimit:4;stroke-dasharray:none;stroke-dashoffset:0;stroke-opacity:1"
           d="m -374.38853,8.2896737 a 24.087861,27.021547 0 0 0 -22.98618,18.9572423 20.576404,23.082427 0 0 0 -4.34794,-0.534375 20.576404,23.082427 0 0 0 -20.57651,23.082223 20.576404,23.082427 0 0 0 9.46822,19.429208 h 83.85871 a 17.944649,20.130146 0 0 0 7.93286,-16.68436 17.944649,20.130146 0 0 0 -16.23863,-20.034424 17.944649,20.130146 0 0 0 -17.71084,-16.961384 17.944649,20.130146 0 0 0 -2.77629,0.255621 24.087861,27.021547 0 0 0 -16.6234,-7.5097513 z"
           id="path825-9-5-5-6"
           inkscape:connector-curvature="0"
           inkscape:export-filename="C:\Users\niclas\dev\vadret-assets\dist\rect993-4-8-2.png"
           inkscape:export-xdpi="23.74"
           inkscape:export-ydpi="23.74" />
      </g>
    </g>
  </g>
</svg>
