<?xml version="1.0" encoding="UTF-8" standalone="no"?>
<!-- Created with Inkscape (http://www.inkscape.org/) -->

<svg
   xmlns:dc="http://purl.org/dc/elements/1.1/"
   xmlns:cc="http://creativecommons.org/ns#"
   xmlns:rdf="http://www.w3.org/1999/02/22-rdf-syntax-ns#"
   xmlns:svg="http://www.w3.org/2000/svg"
   xmlns="http://www.w3.org/2000/svg"
   xmlns:sodipodi="http://sodipodi.sourceforge.net/DTD/sodipodi-0.dtd"
   xmlns:inkscape="http://www.inkscape.org/namespaces/inkscape"
   width="210mm"
   height="297mm"
   viewBox="0 0 210 297"
   version="1.1"
   id="svg8"
   inkscape:version="0.92.3 (2405546, 2018-03-11)"
   sodipodi:docname="wsymb2_heavy_snowfall.svg"
   inkscape:export-filename="C:\Users\niclas\dev\vadret-assets\dist\rect993-4-8-2.png"
   inkscape:export-xdpi="23.74"
   inkscape:export-ydpi="23.74">
  <defs
     id="defs2">
    <inkscape:path-effect
       effect="spiro"
       id="path-effect6421"
       is_visible="true" />
    <inkscape:path-effect
       effect="spiro"
       id="path-effect6417"
       is_visible="true" />
    <inkscape:path-effect
       effect="spiro"
       id="path-effect6417-8"
       is_visible="true" />
    <inkscape:path-effect
       is_visible="true"
       id="path-effect6421-2"
       effect="spiro" />
    <inkscape:path-effect
       is_visible="true"
       id="path-effect6417-5"
       effect="spiro" />
    <inkscape:path-effect
       is_visible="true"
       id="path-effect6417-8-4"
       effect="spiro" />
  </defs>
  <sodipodi:namedview
     id="base"
     pagecolor="#9d9d9d"
     bordercolor="#666666"
     borderopacity="1.0"
     inkscape:pageopacity="0"
     inkscape:pageshadow="2"
     inkscape:zoom="1"
     inkscape:cx="-1461.8076"
     inkscape:cy="812.42597"
     inkscape:document-units="mm"
     inkscape:current-layer="layer1"
     showgrid="false"
     inkscape:window-width="1853"
     inkscape:window-height="1016"
     inkscape:window-x="1147"
     inkscape:window-y="839"
     inkscape:window-maximized="1"
     showborder="false"
     showguides="false"
     inkscape:pagecheckerboard="true" />
  <metadata
     id="metadata5">
    <rdf:RDF>
      <cc:Work
         rdf:about="">
        <dc:format>image/svg+xml</dc:format>
        <dc:type
           rdf:resource="http://purl.org/dc/dcmitype/StillImage" />
        <dc:title />
      </cc:Work>
    </rdf:RDF>
  </metadata>
  <g
     inkscape:label="Layer 1"
     inkscape:groupmode="layer"
     id="layer1">
    <g
       id="wsymb2_heavy_snowfall"
       inkscape:label="#g1035">
      <rect
         ry="0"
         y="-12.610734"
         x="-423.5979"
         height="135.46666"
         width="135.46666"
         id="rect4547-3"
         style="opacity:1;fill:none;fill-opacity:1;stroke:none;stroke-width:0.44730067;stroke-linecap:butt;stroke-linejoin:miter;stroke-miterlimit:4;stroke-dasharray:none;stroke-dashoffset:0;stroke-opacity:1" />
      <g
         id="g1011">
        <g
           id="g1058"
           transform="translate(-13.773663,2.5135416)">
          <g
             transform="translate(0.92722894,-3.3072916)"
             id="g2274">
            <circle
               style="fill:#ffffff;fill-opacity:1;stroke:none;stroke-width:0.26458332;stroke-opacity:1"
               id="path10003"
               cx="-374.39197"
               cy="107.29375"
               r="1.6536458" />
            <circle
               style="fill:#ffffff;fill-opacity:1;stroke:none;stroke-width:0.26458332;stroke-opacity:1"
               id="path10003-8"
               cx="-332.41754"
               cy="107.29375"
               r="1.6536459" />
            <circle
               style="fill:#ffffff;fill-opacity:1;stroke:none;stroke-width:0.26458332;stroke-opacity:1"
               id="path10003-8-9"
               cx="-346.40903"
               cy="107.29375"
               r="1.6536459" />
            <circle
               style="fill:#ffffff;fill-opacity:1;stroke:none;stroke-width:0.26458332;stroke-opacity:1"
               id="path10003-8-9-3"
               cx="-360.40048"
               cy="107.29375"
               r="1.6536459" />
            <circle
               style="fill:#ffffff;fill-opacity:1;stroke:none;stroke-width:0.26458332;stroke-opacity:1"
               id="path10003-8-9-3-1"
               cx="-318.42606"
               cy="107.29375"
               r="1.6536459" />
          </g>
          <g
             transform="translate(0.92722894,-3.3072916)"
             id="g2261">
            <circle
               style="fill:#ffffff;fill-opacity:1;stroke:none;stroke-width:0.26458332;stroke-opacity:1"
               id="path10003-3"
               cx="-375.11627"
               cy="87.648445"
               r="1.6536459" />
            <circle
               style="fill:#ffffff;fill-opacity:1;stroke:none;stroke-width:0.26458332;stroke-opacity:1"
               id="path10003-8-6"
               cx="-333.14185"
               cy="87.648445"
               r="1.6536459" />
            <circle
               style="fill:#ffffff;fill-opacity:1;stroke:none;stroke-width:0.26458332;stroke-opacity:1"
               id="path10003-8-9-7"
               cx="-347.13333"
               cy="87.648445"
               r="1.6536459" />
            <circle
               style="fill:#ffffff;fill-opacity:1;stroke:none;stroke-width:0.26458332;stroke-opacity:1"
               id="path10003-8-9-3-5"
               cx="-361.12479"
               cy="87.648445"
               r="1.6536459" />
            <circle
               style="fill:#ffffff;fill-opacity:1;stroke:none;stroke-width:0.26458332;stroke-opacity:1"
               id="path10003-8-9-3-1-3"
               cx="-319.15036"
               cy="87.648445"
               r="1.6536459" />
          </g>
          <g
             transform="translate(0.92722894,-2.0174478)"
             id="g2267">
            <circle
               style="fill:#ffffff;fill-opacity:1;stroke:none;stroke-width:0.26458332;stroke-opacity:1"
               id="path10003-8-6-6"
               cx="-354.40717"
               cy="96.181252"
               r="1.6536459" />
            <circle
               style="fill:#ffffff;fill-opacity:1;stroke:none;stroke-width:0.26458332;stroke-opacity:1"
               id="path10003-8-9-3-5-9"
               cx="-368.36282"
               cy="96.181252"
               r="1.6536459" />
            <circle
               style="fill:#ffffff;fill-opacity:1;stroke:none;stroke-width:0.26458332;stroke-opacity:1"
               id="path10003-8-6-6-2"
               cx="-340.45151"
               cy="96.181252"
               r="1.6536459" />
            <circle
               style="fill:#ffffff;fill-opacity:1;stroke:none;stroke-width:0.26458332;stroke-opacity:1"
               id="path10003-8-6-6-2-7"
               cx="-326.49582"
               cy="96.181252"
               r="1.6536459" />
          </g>
        </g>
        <path
           style="fill:#939cb2;fill-opacity:1;stroke:none;stroke-width:0.27782416px;stroke-linecap:butt;stroke-linejoin:miter;stroke-opacity:1"
           d="m -357.29873,2.0922862 c -0.19434,0.00195 -0.38853,0.00666 -0.58276,0.015192 -3.10752,0.1355593 -6.17628,1.125533 -8.76721,2.8466127 -4.42298,2.9380598 -7.31623,8.0659131 -7.52621,13.3681211 -0.75837,-0.04485 -1.51903,-0.04436 -2.2774,0.006 -3.8681,0.256743 -7.64519,1.772308 -10.60725,4.273176 -2.96203,2.500867 -5.09104,5.975532 -5.95911,9.753691 -0.43001,1.871741 -0.54787,3.8128 -0.363,5.724156 a 21.606134,24.23757 0 0 1 2.17539,-0.124803 21.606134,24.23757 0 0 1 4.56509,0.561074 25.29332,28.373817 0 0 1 24.13654,-19.905672 25.29332,28.373817 0 0 1 17.45569,7.885433 18.842675,21.137546 0 0 1 2.91498,-0.268057 18.842675,21.137546 0 0 1 18.59744,17.810052 18.842675,21.137546 0 0 1 15.81099,13.569976 c 1.95483,-1.750554 3.57298,-3.861031 4.65844,-6.247787 1.60486,-3.528807 2.0054,-7.589302 1.13736,-11.367463 -0.86806,-3.77816 -2.99709,-7.252827 -5.95914,-9.75369 -2.96202,-2.500868 -6.73917,-4.016433 -10.60721,-4.273176 -2.61733,-0.173723 -5.26602,0.230143 -7.72375,1.146025 -0.0143,-1.273735 -0.22074,-2.53897 -0.65441,-3.74086 -0.55589,-1.540656 -1.47415,-2.956213 -2.69414,-4.04907 -1.21995,-1.092859 -2.74301,-1.8553 -4.35945,-2.119495 -1.36289,-0.222756 -2.77073,-0.09265 -4.10168,0.275653 -0.47083,0.130293 -0.93182,0.291385 -1.38426,0.474797 -0.34146,-2.668649 -1.2647,-5.263328 -2.70551,-7.535438 -1.66578,-2.6268312 -4.01941,-4.8158445 -6.76818,-6.2716661 -2.57694,-1.3648304 -5.49591,-2.0803407 -8.41125,-2.0527512 z"
           id="path6419-6"
           inkscape:connector-curvature="0" />
        <path
           inkscape:export-ydpi="23.74"
           inkscape:export-xdpi="23.74"
           inkscape:export-filename="C:\Users\niclas\dev\vadret-assets\dist\rect993-4-8-2.png"
           inkscape:connector-curvature="0"
           id="path825-9-5-5-6-3"
           d="m -362.33686,21.038225 a 24.087861,27.021547 0 0 0 -22.98618,18.957242 20.576404,23.082427 0 0 0 -4.34794,-0.534375 20.576404,23.082427 0 0 0 -20.57651,23.082223 20.576404,23.082427 0 0 0 9.46822,19.42921 h 83.85871 a 17.944649,20.130146 0 0 0 7.93286,-16.684365 17.944649,20.130146 0 0 0 -16.23863,-20.034422 17.944649,20.130146 0 0 0 -17.71084,-16.961383 17.944649,20.130146 0 0 0 -2.77629,0.255621 24.087861,27.021547 0 0 0 -16.6234,-7.509751 z"
           style="opacity:1;fill:#ececec;fill-opacity:1;stroke:none;stroke-width:0.33900881;stroke-linecap:butt;stroke-linejoin:miter;stroke-miterlimit:4;stroke-dasharray:none;stroke-dashoffset:0;stroke-opacity:1" />
      </g>
    </g>
  </g>
</svg>
