<?xml version="1.0" encoding="UTF-8" standalone="no"?>
<!-- Created with Inkscape (http://www.inkscape.org/) -->

<svg
   xmlns:dc="http://purl.org/dc/elements/1.1/"
   xmlns:cc="http://creativecommons.org/ns#"
   xmlns:rdf="http://www.w3.org/1999/02/22-rdf-syntax-ns#"
   xmlns:svg="http://www.w3.org/2000/svg"
   xmlns="http://www.w3.org/2000/svg"
   xmlns:sodipodi="http://sodipodi.sourceforge.net/DTD/sodipodi-0.dtd"
   xmlns:inkscape="http://www.inkscape.org/namespaces/inkscape"
   width="210mm"
   height="297mm"
   viewBox="0 0 210 297"
   version="1.1"
   id="svg8"
   inkscape:version="0.92.3 (2405546, 2018-03-11)"
   sodipodi:docname="wsymb2_warning.svg"
   inkscape:export-filename="C:\Users\niclas\dev\vadret-assets\dist\rect993-4-8-2.png"
   inkscape:export-xdpi="23.74"
   inkscape:export-ydpi="23.74">
  <defs
     id="defs2" />
  <sodipodi:namedview
     id="base"
     pagecolor="#9d9d9d"
     bordercolor="#666666"
     borderopacity="1.0"
     inkscape:pageopacity="0"
     inkscape:pageshadow="2"
     inkscape:zoom="0.49497476"
     inkscape:cx="-1700.6203"
     inkscape:cy="423.71271"
     inkscape:document-units="mm"
     inkscape:current-layer="layer1"
     showgrid="false"
     inkscape:window-width="1853"
     inkscape:window-height="1016"
     inkscape:window-x="1147"
     inkscape:window-y="839"
     inkscape:window-maximized="1"
     showborder="false"
     showguides="true"
     inkscape:pagecheckerboard="true"
     inkscape:guide-bbox="true">
    <sodipodi:guide
       position="-588.96178,162.06556"
       orientation="1,0"
       id="guide3279"
       inkscape:locked="false" />
  </sodipodi:namedview>
  <metadata
     id="metadata5">
    <rdf:RDF>
      <cc:Work
         rdf:about="">
        <dc:format>image/svg+xml</dc:format>
        <dc:type
           rdf:resource="http://purl.org/dc/dcmitype/StillImage" />
        <dc:title></dc:title>
      </cc:Work>
    </rdf:RDF>
  </metadata>
  <g
     inkscape:label="Layer 1"
     inkscape:groupmode="layer"
     id="layer1">
    <path
       style="color:#000000;font-style:normal;font-variant:normal;font-weight:normal;font-stretch:normal;font-size:medium;line-height:normal;font-family:sans-serif;font-variant-ligatures:normal;font-variant-position:normal;font-variant-caps:normal;font-variant-numeric:normal;font-variant-alternates:normal;font-feature-settings:normal;text-indent:0;text-align:start;text-decoration:none;text-decoration-line:none;text-decoration-style:solid;text-decoration-color:#000000;letter-spacing:normal;word-spacing:normal;text-transform:none;writing-mode:lr-tb;direction:ltr;text-orientation:mixed;dominant-baseline:auto;baseline-shift:baseline;text-anchor:start;white-space:normal;shape-padding:0;clip-rule:nonzero;display:inline;overflow:visible;visibility:visible;opacity:1;isolation:auto;mix-blend-mode:normal;color-interpolation:sRGB;color-interpolation-filters:linearRGB;solid-color:#000000;solid-opacity:1;vector-effect:none;fill:#000000;fill-opacity:1;fill-rule:nonzero;stroke:none;stroke-width:15.875;stroke-linecap:round;stroke-linejoin:round;stroke-miterlimit:4;stroke-dasharray:none;stroke-dashoffset:0;stroke-opacity:1;color-rendering:auto;image-rendering:auto;shape-rendering:auto;text-rendering:auto;enable-background:accumulate"
       d="m -506.72883,70.560178 a 7.9382937,7.9382937 0 0 0 -7.24805,3.958985 l -17.28125,29.931647 -17.28125,29.92969 a 7.9382937,7.9382937 0 0 0 6.875,11.90625 h 34.56055 34.5625 a 7.9382937,7.9382937 0 0 0 6.875,-11.90625 l -17.28125,-29.92969 -17.28125,-29.931647 a 7.9382937,7.9382937 0 0 0 -6.5,-3.958985 z m -0.37305,23.802737 10.40625,18.023435 a 7.9382937,7.9382937 0 0 0 0,0.002 l 10.40625,18.02344 h -20.81445 -20.8125 l 10.40625,-18.02344 z"
       id="path3154"
       inkscape:connector-curvature="0" />
    <circle
       style="opacity:1;fill:#000000;fill-opacity:1;stroke:none;stroke-width:15.70211124;stroke-linecap:square;stroke-linejoin:miter;stroke-miterlimit:4;stroke-dasharray:none;stroke-opacity:1"
       id="path3262-9"
       cx="-630.35516"
       cy="149.53598"
       r="5.604722" />
    <rect
       style="opacity:1;fill:#000000;fill-opacity:1;stroke:none;stroke-width:7.71649885;stroke-linecap:square;stroke-linejoin:miter;stroke-miterlimit:4;stroke-dasharray:none;stroke-opacity:1"
       id="rect3195-5-2-1"
       width="11.039294"
       height="32.810387"
       x="-635.87482"
       y="106.64328"
       ry="6.0866113" />
    <path
       style="opacity:1;fill:#ffffff;fill-opacity:1;stroke:none;stroke-width:15.70211124;stroke-linecap:square;stroke-linejoin:miter;stroke-miterlimit:4;stroke-dasharray:none;stroke-opacity:1"
       d="m -507.10188,94.362915 c -3.0579,0 -5.51955,2.71447 -5.51955,6.086455 v 20.63699 c 0,3.37198 2.46165,6.08696 5.51955,6.08696 3.05787,0 5.51955,-2.71498 5.51955,-6.08696 v -20.63699 c 0,-3.371985 -2.46168,-6.086455 -5.51955,-6.086455 z m 0,37.287645 a 5.6047219,5.6047219 0 0 0 -5.60483,5.60483 5.6047219,5.6047219 0 0 0 5.60483,5.60482 5.6047219,5.6047219 0 0 0 5.60483,-5.60482 5.6047219,5.6047219 0 0 0 -5.60483,-5.60483 z"
       id="path3262-9-2"
       inkscape:connector-curvature="0" />
    <path
       sodipodi:type="star"
       style="opacity:1;fill:#000000;fill-opacity:1;stroke:#000000;stroke-width:17.48326874;stroke-linecap:round;stroke-linejoin:round;stroke-miterlimit:4;stroke-dasharray:none;stroke-opacity:1"
       id="path3154-0"
       sodipodi:sides="3"
       sodipodi:cx="-610.9342"
       sodipodi:cy="51.736561"
       sodipodi:r1="39.908314"
       sodipodi:r2="19.954157"
       sodipodi:arg1="-1.5707963"
       sodipodi:arg2="-0.52359878"
       inkscape:flatsided="false"
       inkscape:rounded="0"
       inkscape:randomized="0"
       d="m -610.9342,11.828247 17.2808,29.931235 17.28081,29.931237 -34.56161,-10e-7 -34.56162,-10e-7 17.28081,-29.931235 z"
       inkscape:transform-center-x="-6.2413119e-06"
       inkscape:transform-center-y="-9.9770744" />
    <path
       style="opacity:1;fill:#ffffff;fill-opacity:1;stroke:none;stroke-width:15.70211124;stroke-linecap:square;stroke-linejoin:miter;stroke-miterlimit:4;stroke-dasharray:none;stroke-opacity:1"
       d="m -610.93417,23.083243 c -3.0579,0 -5.51955,2.71447 -5.51955,6.08645 v 20.63699 c 0,3.37198 2.46165,6.08696 5.51955,6.08696 3.05787,0 5.51955,-2.71498 5.51955,-6.08696 v -20.63699 c 0,-3.37198 -2.46168,-6.08645 -5.51955,-6.08645 z m 0,37.28765 a 5.6047219,5.6047219 0 0 0 -5.60483,5.60483 5.6047219,5.6047219 0 0 0 5.60483,5.60482 5.6047219,5.6047219 0 0 0 5.60483,-5.60482 5.6047219,5.6047219 0 0 0 -5.60483,-5.60483 z"
       id="path3262-9-2-9"
       inkscape:connector-curvature="0" />
    <path
       style="opacity:1;fill:#ffffff;fill-opacity:1;stroke:none;stroke-width:15.70211124;stroke-linecap:square;stroke-linejoin:miter;stroke-miterlimit:4;stroke-dasharray:none;stroke-opacity:1"
       d="m -599.72393,111.30273 c -3.0579,0 -5.51955,2.71447 -5.51955,6.08645 v 20.637 c 0,3.37197 2.46165,6.08695 5.51955,6.08695 3.05787,0 5.51955,-2.71498 5.51955,-6.08695 v -20.637 c 0,-3.37198 -2.46168,-6.08645 -5.51955,-6.08645 z m 0,37.28765 a 5.6047219,5.6047219 0 0 0 -5.60483,5.60483 5.6047219,5.6047219 0 0 0 5.60483,5.60482 5.6047219,5.6047219 0 0 0 5.60483,-5.60482 5.6047219,5.6047219 0 0 0 -5.60483,-5.60483 z"
       id="path3262-9-2-3"
       inkscape:connector-curvature="0" />
    <path
       style="color:#000000;font-style:normal;font-variant:normal;font-weight:normal;font-stretch:normal;font-size:medium;line-height:normal;font-family:sans-serif;font-variant-ligatures:normal;font-variant-position:normal;font-variant-caps:normal;font-variant-numeric:normal;font-variant-alternates:normal;font-feature-settings:normal;text-indent:0;text-align:start;text-decoration:none;text-decoration-line:none;text-decoration-style:solid;text-decoration-color:#000000;letter-spacing:normal;word-spacing:normal;text-transform:none;writing-mode:lr-tb;direction:ltr;text-orientation:mixed;dominant-baseline:auto;baseline-shift:baseline;text-anchor:start;white-space:normal;shape-padding:0;clip-rule:nonzero;display:inline;overflow:visible;visibility:visible;opacity:1;isolation:auto;mix-blend-mode:normal;color-interpolation:sRGB;color-interpolation-filters:linearRGB;solid-color:#000000;solid-opacity:1;vector-effect:none;fill:#000000;fill-opacity:1;fill-rule:nonzero;stroke:none;stroke-width:15.875;stroke-linecap:round;stroke-linejoin:round;stroke-miterlimit:4;stroke-dasharray:none;stroke-dashoffset:0;stroke-opacity:1;color-rendering:auto;image-rendering:auto;shape-rendering:auto;text-rendering:auto;enable-background:accumulate"
       d="m -491.66932,163.3244 a 7.9382936,7.9382936 0 0 0 -7.24813,3.95893 l -17.28113,29.9315 -17.2811,29.92944 a 7.9382936,7.9382936 0 0 0 6.87504,11.90625 h 34.56014 34.56276 a 7.9382936,7.9382936 0 0 0 6.87504,-11.90625 l -17.28113,-29.92944 -17.28163,-29.9315 a 7.9382936,7.9382936 0 0 0 -6.49986,-3.95893 z"
       id="path3154-6"
       inkscape:connector-curvature="0" />
    <path
       style="opacity:1;fill:#ffffff;fill-opacity:1;stroke:none;stroke-width:15.00983429;stroke-linecap:square;stroke-linejoin:miter;stroke-miterlimit:4;stroke-dasharray:none;stroke-opacity:1"
       d="m -492.04319,182.9488 c -2.92308,0 -5.2762,2.59479 -5.2762,5.81811 v 19.72715 c 0,3.22331 2.35312,5.81859 5.2762,5.81859 2.92305,0 5.2762,-2.59528 5.2762,-5.81859 v -19.72715 c 0,-3.22332 -2.35315,-5.81811 -5.2762,-5.81811 z m 0,35.6437 a 5.3576201,5.3576201 0 0 0 -5.35772,5.35773 5.3576201,5.3576201 0 0 0 5.35772,5.35771 5.3576201,5.3576201 0 0 0 5.35772,-5.35771 5.3576201,5.3576201 0 0 0 -5.35772,-5.35773 z"
       id="path3262-9-2-0"
       inkscape:connector-curvature="0" />
    <g
       id="wsymb2_warning"
       inkscape:label="#g3429"
       inkscape:export-filename="/home/niclas/wsymb2_warning.png"
       inkscape:export-xdpi="43.349339"
       inkscape:export-ydpi="43.349339">
      <path
         style="opacity:1;fill:none;fill-opacity:1;stroke:none;stroke-width:0.49528855;stroke-linecap:butt;stroke-linejoin:miter;stroke-miterlimit:4;stroke-dasharray:none;stroke-dashoffset:0;stroke-opacity:1"
         d="m -397.38531,51.085323 h 150 V 201.08532 h -150 z"
         id="rect4547"
         inkscape:connector-curvature="0" />
      <path
         inkscape:connector-curvature="0"
         id="path3154-6-6"
         d="m -321.86242,73.136353 a 11.102467,11.102467 0 0 0 -10.13721,5.536958 l -24.16927,41.862089 -24.16932,41.8592 a 11.102467,11.102467 0 0 0 9.6154,16.65203 h 48.33573 48.3393 a 11.102467,11.102467 0 0 0 9.6154,-16.65203 l -24.16928,-41.8592 -24.17007,-41.862089 a 11.102467,11.102467 0 0 0 -9.09068,-5.536958 z m -0.52255,27.446967 c 4.08821,0 7.37923,3.62926 7.37923,8.13738 v 27.59005 c 0,4.50811 -3.29103,8.13809 -7.37923,8.13809 -4.08817,0 -7.3792,-3.62998 -7.3792,-8.13809 V 108.7207 c 0,-4.50812 3.29104,-8.13738 7.3792,-8.13738 z m 0,49.85129 a 7.4931467,7.4931467 0 0 1 7.49343,7.49343 7.4931467,7.4931467 0 0 1 -7.49343,7.49269 7.4931467,7.4931467 0 0 1 -7.4934,-7.49269 7.4931467,7.4931467 0 0 1 7.4934,-7.49343 z"
         style="color:#000000;font-style:normal;font-variant:normal;font-weight:normal;font-stretch:normal;font-size:medium;line-height:normal;font-family:sans-serif;font-variant-ligatures:normal;font-variant-position:normal;font-variant-caps:normal;font-variant-numeric:normal;font-variant-alternates:normal;font-feature-settings:normal;text-indent:0;text-align:start;text-decoration:none;text-decoration-line:none;text-decoration-style:solid;text-decoration-color:#000000;letter-spacing:normal;word-spacing:normal;text-transform:none;writing-mode:lr-tb;direction:ltr;text-orientation:mixed;dominant-baseline:auto;baseline-shift:baseline;text-anchor:start;white-space:normal;shape-padding:0;clip-rule:nonzero;display:inline;overflow:visible;visibility:visible;opacity:1;isolation:auto;mix-blend-mode:normal;color-interpolation:sRGB;color-interpolation-filters:linearRGB;solid-color:#000000;solid-opacity:1;vector-effect:none;fill:#000000;fill-opacity:1;fill-rule:nonzero;stroke:none;stroke-width:22.20271301;stroke-linecap:round;stroke-linejoin:round;stroke-miterlimit:4;stroke-dasharray:none;stroke-dashoffset:0;stroke-opacity:1;color-rendering:auto;image-rendering:auto;shape-rendering:auto;text-rendering:auto;enable-background:accumulate" />
    </g>
  </g>
</svg>
