<?xml version="1.0" encoding="UTF-8" standalone="no"?>
<!-- Created with Inkscape (http://www.inkscape.org/) -->

<svg
   xmlns:dc="http://purl.org/dc/elements/1.1/"
   xmlns:cc="http://creativecommons.org/ns#"
   xmlns:rdf="http://www.w3.org/1999/02/22-rdf-syntax-ns#"
   xmlns:svg="http://www.w3.org/2000/svg"
   xmlns="http://www.w3.org/2000/svg"
   xmlns:sodipodi="http://sodipodi.sourceforge.net/DTD/sodipodi-0.dtd"
   xmlns:inkscape="http://www.inkscape.org/namespaces/inkscape"
   width="210mm"
   height="297mm"
   viewBox="0 0 210 297"
   version="1.1"
   id="svg8"
   inkscape:version="0.92.3 (2405546, 2018-03-11)"
   sodipodi:docname="wsymb2_cloudy_sky.svg"
   inkscape:export-filename="C:\Users\niclas\dev\vadret-assets\dist\rect993-4-8-2.png"
   inkscape:export-xdpi="23.74"
   inkscape:export-ydpi="23.74">
  <defs
     id="defs2">
    <inkscape:path-effect
       effect="spiro"
       id="path-effect6421"
       is_visible="true" />
    <inkscape:path-effect
       effect="spiro"
       id="path-effect6417"
       is_visible="true" />
    <inkscape:path-effect
       effect="spiro"
       id="path-effect6417-8"
       is_visible="true" />
  </defs>
  <sodipodi:namedview
     id="base"
     pagecolor="#9d9d9d"
     bordercolor="#666666"
     borderopacity="1.0"
     inkscape:pageopacity="0"
     inkscape:pageshadow="2"
     inkscape:zoom="1"
     inkscape:cx="-1335.8815"
     inkscape:cy="924.03697"
     inkscape:document-units="mm"
     inkscape:current-layer="layer1"
     showgrid="false"
     inkscape:window-width="1853"
     inkscape:window-height="1016"
     inkscape:window-x="1147"
     inkscape:window-y="839"
     inkscape:window-maximized="1"
     showborder="false"
     showguides="false"
     inkscape:pagecheckerboard="true" />
  <metadata
     id="metadata5">
    <rdf:RDF>
      <cc:Work
         rdf:about="">
        <dc:format>image/svg+xml</dc:format>
        <dc:type
           rdf:resource="http://purl.org/dc/dcmitype/StillImage" />
        <dc:title />
      </cc:Work>
    </rdf:RDF>
  </metadata>
  <g
     inkscape:label="Layer 1"
     inkscape:groupmode="layer"
     id="layer1">
    <g
       id="wsymb2_cloudy_sky"
       inkscape:label="#g826">
      <rect
         ry="0"
         y="-33.597599"
         x="-405.60693"
         height="135.46666"
         width="135.46666"
         id="rect4547"
         style="opacity:1;fill:none;fill-opacity:1;stroke:none;stroke-width:0.44730067;stroke-linecap:butt;stroke-linejoin:miter;stroke-miterlimit:4;stroke-dasharray:none;stroke-dashoffset:0;stroke-opacity:1" />
      <g
         id="g888">
        <path
           style="fill:#acb3c6;fill-opacity:1;stroke:none;stroke-width:0.27604079px;stroke-linecap:butt;stroke-linejoin:miter;stroke-opacity:1"
           d="m -339.4086,-6.998626 c -0.19467,0.00181 -0.38972,0.00663 -0.58421,0.014976 -3.11225,0.1336214 -6.18513,1.1094405 -8.78001,2.8059128 -4.42972,2.8960519 -7.32739,7.9505882 -7.53769,13.1769848 -0.75953,-0.0442 -1.52184,-0.04374 -2.2814,0.0059 -3.87398,0.253071 -7.65631,1.7469674 -10.62283,4.2120774 -2.96653,2.46511 -5.09935,5.890097 -5.96874,9.614236 -0.43067,1.84498 -0.54829,3.758287 -0.36303,5.642314 a 21.639028,23.891027 0 0 1 2.17817,-0.12302 21.639028,23.891027 0 0 1 4.5726,0.553053 25.331826,27.968135 0 0 1 24.17326,-19.6210644 25.331826,27.968135 0 0 1 17.48174,7.7726874 18.871361,20.835325 0 0 1 2.91997,-0.264224 18.871361,20.835325 0 0 1 18.62518,17.555408 18.871361,20.835325 0 0 1 15.83563,13.375956 c 1.95781,-1.725525 3.57839,-3.805827 4.66554,-6.158459 1.60727,-3.478353 2.00844,-7.480792 1.13906,-11.204932 -0.86938,-3.72414 -3.00165,-7.149126 -5.96818,-9.614235 -2.96656,-2.465111 -6.74942,-3.959006 -10.62339,-4.212079 -2.6211,-0.171226 -5.27418,0.226466 -7.7355,1.129105 -0.0144,-1.255343 -0.22116,-2.502303 -0.65539,-3.686839 -0.55677,-1.518629 -1.47643,-2.913946 -2.69824,-3.9911777 -1.22181,-1.0772314 -2.74775,-1.8287721 -4.36664,-2.08919 -1.36497,-0.2195717 -2.77444,-0.091334 -4.1074,0.2717124 -0.47155,0.1284286 -0.93325,0.2872192 -1.38634,0.4680082 -0.34197,-2.6304932 -1.26661,-5.1880735 -2.70965,-7.4276985 -1.66833,-2.589273 -4.02555,-4.7469888 -6.77847,-6.1819939 -2.58089,-1.3453171 -5.50425,-2.0505965 -8.42404,-2.0234021 z"
           id="path6419"
           inkscape:connector-curvature="0" />
        <path
           style="opacity:1;fill:#f9f9f9;fill-opacity:1;stroke:none;stroke-width:0.33900881;stroke-linecap:butt;stroke-linejoin:miter;stroke-miterlimit:4;stroke-dasharray:none;stroke-dashoffset:0;stroke-opacity:1"
           d="m -344.33002,11.534047 a 24.087861,27.021547 0 0 0 -22.98618,18.957242 20.576404,23.082427 0 0 0 -4.34794,-0.534375 20.576404,23.082427 0 0 0 -20.57651,23.082228 20.576404,23.082427 0 0 0 9.46822,19.4292 h 83.85871 a 17.944649,20.130146 0 0 0 7.93286,-16.68436 17.944649,20.130146 0 0 0 -16.23863,-20.034422 17.944649,20.130146 0 0 0 -17.71084,-16.961383 17.944649,20.130146 0 0 0 -2.77629,0.255621 24.087861,27.021547 0 0 0 -16.6234,-7.509751 z"
           id="path825-9-5-5-6"
           inkscape:connector-curvature="0"
           inkscape:export-filename="C:\Users\niclas\dev\vadret-assets\dist\rect993-4-8-2.png"
           inkscape:export-xdpi="23.74"
           inkscape:export-ydpi="23.74" />
      </g>
    </g>
  </g>
</svg>
