<?xml version="1.0" encoding="UTF-8" standalone="no"?>
<!-- Created with Inkscape (http://www.inkscape.org/) -->

<svg
   xmlns:dc="http://purl.org/dc/elements/1.1/"
   xmlns:cc="http://creativecommons.org/ns#"
   xmlns:rdf="http://www.w3.org/1999/02/22-rdf-syntax-ns#"
   xmlns:svg="http://www.w3.org/2000/svg"
   xmlns="http://www.w3.org/2000/svg"
   xmlns:sodipodi="http://sodipodi.sourceforge.net/DTD/sodipodi-0.dtd"
   xmlns:inkscape="http://www.inkscape.org/namespaces/inkscape"
   width="210mm"
   height="297mm"
   viewBox="0 0 210 297"
   version="1.1"
   id="svg8"
   inkscape:version="0.92.3 (2405546, 2018-03-11)"
   sodipodi:docname="wsymb2_moderate_sleet.svg"
   inkscape:export-filename="C:\Users\niclas\dev\vadret-assets\dist\rect993-4-8-2.png"
   inkscape:export-xdpi="23.74"
   inkscape:export-ydpi="23.74">
  <defs
     id="defs2">
    <inkscape:path-effect
       is_visible="true"
       id="path-effect6421"
       effect="spiro" />
    <inkscape:path-effect
       is_visible="true"
       id="path-effect6417"
       effect="spiro" />
    <inkscape:path-effect
       is_visible="true"
       id="path-effect6417-8"
       effect="spiro" />
    <inkscape:path-effect
       is_visible="true"
       id="path-effect6421-1"
       effect="spiro" />
    <inkscape:path-effect
       is_visible="true"
       id="path-effect6417-29"
       effect="spiro" />
    <inkscape:path-effect
       is_visible="true"
       id="path-effect6417-8-3"
       effect="spiro" />
    <inkscape:path-effect
       effect="spiro"
       id="path-effect6421-2"
       is_visible="true" />
    <inkscape:path-effect
       effect="spiro"
       id="path-effect6417-5"
       is_visible="true" />
    <inkscape:path-effect
       effect="spiro"
       id="path-effect6417-8-4"
       is_visible="true" />
    <inkscape:path-effect
       effect="spiro"
       id="path-effect6421-3"
       is_visible="true" />
    <inkscape:path-effect
       effect="spiro"
       id="path-effect6417-85"
       is_visible="true" />
    <inkscape:path-effect
       effect="spiro"
       id="path-effect6417-8-50"
       is_visible="true" />
    <inkscape:path-effect
       is_visible="true"
       id="path-effect6421-2-1"
       effect="spiro" />
    <inkscape:path-effect
       is_visible="true"
       id="path-effect6417-5-2"
       effect="spiro" />
    <inkscape:path-effect
       is_visible="true"
       id="path-effect6417-8-4-6"
       effect="spiro" />
    <inkscape:path-effect
       is_visible="true"
       id="path-effect6421-7"
       effect="spiro" />
    <inkscape:path-effect
       is_visible="true"
       id="path-effect6417-53"
       effect="spiro" />
    <inkscape:path-effect
       is_visible="true"
       id="path-effect6417-8-5"
       effect="spiro" />
    <inkscape:path-effect
       effect="spiro"
       id="path-effect6421-78"
       is_visible="true" />
    <inkscape:path-effect
       effect="spiro"
       id="path-effect6417-2"
       is_visible="true" />
    <inkscape:path-effect
       effect="spiro"
       id="path-effect6417-8-53"
       is_visible="true" />
    <inkscape:path-effect
       is_visible="true"
       id="path-effect6421-2-4"
       effect="spiro" />
    <inkscape:path-effect
       is_visible="true"
       id="path-effect6417-5-9"
       effect="spiro" />
    <inkscape:path-effect
       is_visible="true"
       id="path-effect6417-8-4-0"
       effect="spiro" />
    <inkscape:path-effect
       is_visible="true"
       id="path-effect6421-7-2"
       effect="spiro" />
    <inkscape:path-effect
       is_visible="true"
       id="path-effect6417-53-0"
       effect="spiro" />
    <inkscape:path-effect
       is_visible="true"
       id="path-effect6417-8-5-1"
       effect="spiro" />
  </defs>
  <sodipodi:namedview
     id="base"
     pagecolor="#9d9d9d"
     bordercolor="#666666"
     borderopacity="1.0"
     inkscape:pageopacity="0"
     inkscape:pageshadow="2"
     inkscape:zoom="1"
     inkscape:cx="-1551.3122"
     inkscape:cy="788.88978"
     inkscape:document-units="mm"
     inkscape:current-layer="layer1"
     showgrid="false"
     inkscape:window-width="1853"
     inkscape:window-height="1016"
     inkscape:window-x="1147"
     inkscape:window-y="839"
     inkscape:window-maximized="1"
     showborder="false"
     showguides="false"
     inkscape:pagecheckerboard="true" />
  <metadata
     id="metadata5">
    <rdf:RDF>
      <cc:Work
         rdf:about="">
        <dc:format>image/svg+xml</dc:format>
        <dc:type
           rdf:resource="http://purl.org/dc/dcmitype/StillImage" />
        <dc:title />
      </cc:Work>
    </rdf:RDF>
  </metadata>
  <g
     inkscape:label="Layer 1"
     inkscape:groupmode="layer"
     id="layer1">
    <g
       id="wsymb2_moderate_sleet"
       inkscape:label="#g961">
      <rect
         ry="0"
         y="-18.154001"
         x="-394.62051"
         height="135.46666"
         width="135.46666"
         id="rect4547"
         style="opacity:1;fill:none;fill-opacity:1;stroke:none;stroke-width:0.44730067;stroke-linecap:butt;stroke-linejoin:miter;stroke-miterlimit:4;stroke-dasharray:none;stroke-dashoffset:0;stroke-opacity:1" />
      <g
         id="g942">
        <g
           id="g18537">
          <rect
             ry="2.2391672"
             y="78.368088"
             x="-320.11035"
             height="28.267277"
             width="4.4783344"
             id="rect5135-7-6-3-0-7"
             style="fill:#759fe6;fill-opacity:1;stroke-width:0.31795853" />
          <rect
             ry="2.2391672"
             y="78.368088"
             x="-345.5127"
             height="28.267277"
             width="4.4783344"
             id="rect5135-7-6-3-0"
             style="fill:#759fe6;fill-opacity:1;stroke-width:0.3179585" />
          <rect
             ry="2.1581089"
             y="87.94236"
             x="-307.53796"
             height="9.1187401"
             width="4.4783344"
             id="rect5135-7-5-7"
             style="fill:#759fe6;fill-opacity:1;stroke-width:0.1805909" />
          <rect
             ry="2.1581089"
             y="97.516632"
             x="-345.5127"
             height="9.1187401"
             width="4.4783344"
             id="rect5135-7"
             style="fill:#759fe6;fill-opacity:1;stroke-width:0.1805909" />
          <rect
             ry="2.1581089"
             y="78.368088"
             x="-345.5127"
             height="9.1187401"
             width="4.4783344"
             id="rect5135-7-6"
             style="fill:#759fe6;fill-opacity:1;stroke-width:0.1805909" />
          <rect
             ry="2.1581089"
             y="87.94236"
             x="-332.94031"
             height="9.1187401"
             width="4.4783344"
             id="rect5135-7-5"
             style="fill:#759fe6;fill-opacity:1;stroke-width:0.1805909" />
          <rect
             transform="scale(-1)"
             ry="2.1581089"
             y="-97.061104"
             x="353.60675"
             height="9.1187401"
             width="4.4783344"
             id="rect5135-7-5-4"
             style="fill:#759fe6;fill-opacity:1;stroke-width:0.1805909" />
          <circle
             r="1.6536459"
             cy="80.021736"
             cx="-304.71329"
             id="path10003-8-6-6"
             style="fill:#ffffff;fill-opacity:1;stroke:none;stroke-width:0.26458332;stroke-opacity:1" />
          <circle
             r="1.6536459"
             cy="80.021736"
             cx="-330.70114"
             id="path10003-8-9-3-5-9"
             style="fill:#ffffff;fill-opacity:1;stroke:none;stroke-width:0.26458332;stroke-opacity:1" />
          <circle
             r="1.6536459"
             cy="104.11158"
             cx="-330.70114"
             id="path10003-8-6-6-2-3"
             style="fill:#ffffff;fill-opacity:1;stroke:none;stroke-width:0.26458332;stroke-opacity:1" />
          <circle
             r="1.6536459"
             cy="80.021736"
             cx="-356.43143"
             id="path10003-8-6-6-2-3-6-0-6"
             style="fill:#ffffff;fill-opacity:1;stroke:none;stroke-width:0.26458332;stroke-opacity:1" />
        </g>
        <g
           id="g925">
          <path
             inkscape:connector-curvature="0"
             id="path6419"
             d="m -328.389,-7.4759767 c -0.19434,0.00184 -0.38854,0.00672 -0.58277,0.015193 -3.10752,0.1355596 -6.17628,1.1255331 -8.76721,2.846613 -4.42299,2.9380597 -7.31622,8.0659127 -7.5262,13.3681196 -0.75838,-0.04484 -1.51904,-0.04437 -2.27741,0.006 -3.86809,0.2567417 -7.6452,1.7723071 -10.60725,4.2731741 -2.96202,2.500867 -5.09104,5.975533 -5.9591,9.753692 -0.43002,1.871741 -0.54787,3.812801 -0.36301,5.724157 a 21.606135,24.23757 0 0 1 2.17539,-0.124805 21.606135,24.23757 0 0 1 4.5651,0.561075 25.29332,28.373817 0 0 1 24.13653,-19.9056714 25.29332,28.373817 0 0 1 17.4557,7.8854324 18.842675,21.137544 0 0 1 2.91498,-0.268057 18.842675,21.137544 0 0 1 18.59742,17.810052 18.842675,21.137544 0 0 1 15.811,13.569976 c 1.95483,-1.750554 3.57299,-3.861031 4.65845,-6.247789 1.60485,-3.528806 2.00539,-7.589301 1.13735,-11.36746 -0.86806,-3.77816 -2.99708,-7.252826 -5.95913,-9.753692 -2.96202,-2.500867 -6.73918,-4.016432 -10.60722,-4.273175 -2.61732,-0.173724 -5.26602,0.230144 -7.72373,1.146025 -0.0143,-1.273735 -0.22076,-2.538971 -0.65442,-3.74086 -0.5559,-1.540656 -1.47416,-2.956213 -2.69414,-4.0490707 -1.21996,-1.0928564 -2.74302,-1.8552981 -4.35945,-2.1194935 -1.3629,-0.2227567 -2.77074,-0.092659 -4.10169,0.2756534 -0.47083,0.130292 -0.93182,0.291386 -1.38426,0.474797 -0.34144,-2.6686491 -1.26468,-5.2633274 -2.70551,-7.53543847 -1.66577,-2.62683083 -4.01942,-4.81584463 -6.76818,-6.27166463 -2.57693,-1.3648314 -5.49589,-2.0803407 -8.41124,-2.0527528 z"
             style="fill:#939cb2;fill-opacity:1;stroke:none;stroke-width:0.27782419px;stroke-linecap:butt;stroke-linejoin:miter;stroke-opacity:1" />
          <path
             inkscape:export-ydpi="23.74"
             inkscape:export-xdpi="23.74"
             inkscape:export-filename="C:\Users\niclas\dev\vadret-assets\dist\rect993-4-8-2.png"
             inkscape:connector-curvature="0"
             id="path825-9-5-5-6-3"
             d="m -333.2918,11.53392 a 24.087861,27.021547 0 0 0 -22.98619,18.957242 20.576404,23.082427 0 0 0 -4.34794,-0.534375 20.576404,23.082427 0 0 0 -20.57651,23.082223 20.576404,23.082427 0 0 0 9.46822,19.429208 h 83.85872 a 17.944649,20.130146 0 0 0 7.93285,-16.684363 17.944649,20.130146 0 0 0 -16.23862,-20.034422 17.944649,20.130146 0 0 0 -17.71085,-16.961383 17.944649,20.130146 0 0 0 -2.77628,0.255621 24.087861,27.021547 0 0 0 -16.6234,-7.509751 z"
             style="opacity:1;fill:#ececec;fill-opacity:1;stroke:none;stroke-width:0.33900881;stroke-linecap:butt;stroke-linejoin:miter;stroke-miterlimit:4;stroke-dasharray:none;stroke-dashoffset:0;stroke-opacity:1" />
        </g>
      </g>
    </g>
  </g>
</svg>
