<?xml version="1.0" encoding="UTF-8" standalone="no"?>
<!-- Created with Inkscape (http://www.inkscape.org/) -->

<svg
   xmlns:dc="http://purl.org/dc/elements/1.1/"
   xmlns:cc="http://creativecommons.org/ns#"
   xmlns:rdf="http://www.w3.org/1999/02/22-rdf-syntax-ns#"
   xmlns:svg="http://www.w3.org/2000/svg"
   xmlns="http://www.w3.org/2000/svg"
   xmlns:sodipodi="http://sodipodi.sourceforge.net/DTD/sodipodi-0.dtd"
   xmlns:inkscape="http://www.inkscape.org/namespaces/inkscape"
   width="210mm"
   height="297mm"
   viewBox="0 0 210 297"
   version="1.1"
   id="svg8"
   inkscape:version="0.92.3 (2405546, 2018-03-11)"
   sodipodi:docname="wsymb2_halfclear_sky.svg"
   inkscape:export-filename="C:\Users\niclas\dev\vadret-assets\dist\rect993-4-8-2.png"
   inkscape:export-xdpi="23.74"
   inkscape:export-ydpi="23.74">
  <defs
     id="defs2">
    <inkscape:path-effect
       effect="spiro"
       id="path-effect6421"
       is_visible="true" />
    <inkscape:path-effect
       effect="spiro"
       id="path-effect6417"
       is_visible="true" />
    <inkscape:path-effect
       effect="spiro"
       id="path-effect6417-8"
       is_visible="true" />
  </defs>
  <sodipodi:namedview
     id="base"
     pagecolor="#9d9d9d"
     bordercolor="#666666"
     borderopacity="1.0"
     inkscape:pageopacity="0"
     inkscape:pageshadow="2"
     inkscape:zoom="0.70710678"
     inkscape:cx="-1486.8517"
     inkscape:cy="820.29809"
     inkscape:document-units="mm"
     inkscape:current-layer="layer1"
     showgrid="false"
     inkscape:window-width="1853"
     inkscape:window-height="1016"
     inkscape:window-x="1147"
     inkscape:window-y="839"
     inkscape:window-maximized="1"
     showborder="false"
     showguides="false"
     inkscape:pagecheckerboard="true" />
  <metadata
     id="metadata5">
    <rdf:RDF>
      <cc:Work
         rdf:about="">
        <dc:format>image/svg+xml</dc:format>
        <dc:type
           rdf:resource="http://purl.org/dc/dcmitype/StillImage" />
        <dc:title />
      </cc:Work>
    </rdf:RDF>
  </metadata>
  <g
     inkscape:label="Layer 1"
     inkscape:groupmode="layer"
     id="layer1">
    <g
       id="wsymb2_halfclear_sky"
       inkscape:label="#g1044">
      <rect
         ry="0"
         y="-32.564999"
         x="-412.53214"
         height="135.46666"
         width="135.46666"
         id="rect4547"
         style="opacity:1;fill:none;fill-opacity:1;stroke:none;stroke-width:0.44730067;stroke-linecap:butt;stroke-linejoin:miter;stroke-miterlimit:4;stroke-dasharray:none;stroke-dashoffset:0;stroke-opacity:1" />
      <g
         id="g1035">
        <path
           style="fill:#acb3c6;fill-opacity:1;stroke:none;stroke-width:0.2779842px;stroke-linecap:butt;stroke-linejoin:miter;stroke-opacity:1"
           d="m -345.57876,-1.1445844 c -0.19447,0.0018 -0.38934,0.0067 -0.58366,0.0152 -3.10931,0.13563702 -6.17928,1.12618102 -8.7717,2.848252 -4.42554,2.939752 -7.32044,8.070558 -7.53057,13.3758184 -0.75881,-0.04487 -1.52041,-0.04439 -2.27925,0.006 -3.87031,0.256892 -7.64907,1.77333 -10.6128,4.275637 -2.96376,2.502307 -5.09453,5.978974 -5.9631,9.759308 -0.43026,1.872822 -0.54776,3.814998 -0.36268,5.727454 a 21.618579,24.251529 0 0 1 2.17612,-0.124875 21.618579,24.251529 0 0 1 4.56828,0.561398 25.307888,28.390159 0 0 1 24.15041,-19.917136 25.307888,28.390159 0 0 1 17.46522,7.889974 18.853528,21.149719 0 0 1 2.91722,-0.268211 18.853528,21.149719 0 0 1 18.60757,17.82031 18.853528,21.149719 0 0 1 15.82067,13.577793 c 1.95595,-1.751563 3.57501,-3.863256 4.66112,-6.251387 1.60575,-3.530842 2.00655,-7.593675 1.13799,-11.37401 -0.86853,-3.780338 -2.99881,-7.257 -5.96254,-9.75931 -2.96376,-2.502308 -6.74303,-4.018744 -10.61336,-4.275636 -2.61861,-0.17381 -5.26919,0.229884 -7.72818,1.146142 -0.0144,-1.274285 -0.22094,-2.540061 -0.65476,-3.742471 -0.55625,-1.541543 -1.47504,-2.957916 -2.6957,-4.051403 -1.22066,-1.093487 -2.74515,-1.856367 -4.36252,-2.120715 -1.36368,-0.222885 -2.7718,-0.09271 -4.10352,0.275812 -0.4711,0.130367 -0.93235,0.291553 -1.38503,0.475071 -0.34164,-2.670186 -1.26544,-5.2663594 -2.70709,-7.5397784 -1.66673,-2.628344 -4.02174,-4.818618 -6.77206,-6.27527698 -2.57844,-1.365617 -5.49905,-2.08153902 -8.41608,-2.05393402 z"
           id="path6419-5"
           inkscape:connector-curvature="0" />
        <path
           style="opacity:1;fill:#f9f9f9;fill-opacity:1;stroke:none;stroke-width:0.33900881;stroke-linecap:butt;stroke-linejoin:miter;stroke-miterlimit:4;stroke-dasharray:none;stroke-dashoffset:0;stroke-opacity:1"
           d="m -350.15071,17.883921 a 24.087861,27.021547 0 0 0 -22.98619,18.957241 20.576404,23.082427 0 0 0 -4.34794,-0.53437 20.576404,23.082427 0 0 0 -20.57651,23.08222 20.576404,23.082427 0 0 0 9.46822,19.42921 h 83.85872 a 17.944649,20.130146 0 0 0 7.93285,-16.68437 17.944649,20.130146 0 0 0 -16.23862,-20.03442 17.944649,20.130146 0 0 0 -17.71085,-16.96138 17.944649,20.130146 0 0 0 -2.77628,0.25562 24.087861,27.021547 0 0 0 -16.6234,-7.509751 z"
           id="path825-9-5-5-5-6"
           inkscape:connector-curvature="0"
           inkscape:export-filename="C:\Users\niclas\dev\vadret-assets\dist\rect993-4-8-2.png"
           inkscape:export-xdpi="23.74"
           inkscape:export-ydpi="23.74" />
        <path
           style="fill:#f98412;fill-opacity:1;stroke-width:0.2730003"
           d="m -372.43154,-8.4815259 c -15.15276,0 -27.43652,12.2837537 -27.43652,27.4365329 0.005,7.523258 3.09959,14.714302 8.559,19.890632 2.17543,-1.558681 4.58602,-2.659265 7.11345,-3.247745 v -2.028306 c -0.19095,-1.973293 -0.0697,-3.977631 0.37432,-5.910031 0.89621,-3.900596 3.0946,-7.487642 6.15263,-10.069552 3.05801,-2.581911 6.95695,-4.146664 10.95041,-4.411728 0.78296,-0.05199 1.56901,-0.05214 2.35197,-0.0059 0.21682,-5.4740308 3.20404,-10.7681744 7.77038,-13.80144623 0.66372,-0.44091407 1.35768,-0.83503127 2.07521,-1.18104627 -4.9777,-4.2986777 -11.33391,-6.6662507 -17.91085,-6.6714459 z"
           id="path2979-4-2"
           inkscape:connector-curvature="0"
           sodipodi:nodetypes="cccccccccccc" />
      </g>
    </g>
  </g>
</svg>
