<?xml version="1.0" encoding="UTF-8" standalone="no"?>
<!-- Created with Inkscape (http://www.inkscape.org/) -->

<svg
   xmlns:dc="http://purl.org/dc/elements/1.1/"
   xmlns:cc="http://creativecommons.org/ns#"
   xmlns:rdf="http://www.w3.org/1999/02/22-rdf-syntax-ns#"
   xmlns:svg="http://www.w3.org/2000/svg"
   xmlns="http://www.w3.org/2000/svg"
   xmlns:sodipodi="http://sodipodi.sourceforge.net/DTD/sodipodi-0.dtd"
   xmlns:inkscape="http://www.inkscape.org/namespaces/inkscape"
   width="210mm"
   height="297mm"
   viewBox="0 0 210 297"
   version="1.1"
   id="svg8"
   inkscape:version="0.92.3 (2405546, 2018-03-11)"
   sodipodi:docname="wsymb2_clear_sky.svg"
   inkscape:export-filename="C:\Users\niclas\dev\vadret-assets\dist\rect993-4-8-2.png"
   inkscape:export-xdpi="23.74"
   inkscape:export-ydpi="23.74">
  <defs
     id="defs2" />
  <sodipodi:namedview
     id="base"
     pagecolor="#9d9d9d"
     bordercolor="#666666"
     borderopacity="1.0"
     inkscape:pageopacity="0"
     inkscape:pageshadow="2"
     inkscape:zoom="0.70710678"
     inkscape:cx="-1821.6574"
     inkscape:cy="1079.1912"
     inkscape:document-units="mm"
     inkscape:current-layer="layer1"
     showgrid="false"
     inkscape:window-width="1853"
     inkscape:window-height="1025"
     inkscape:window-x="1147"
     inkscape:window-y="839"
     inkscape:window-maximized="1"
     showborder="false"
     showguides="false"
     inkscape:pagecheckerboard="true" />
  <metadata
     id="metadata5">
    <rdf:RDF>
      <cc:Work
         rdf:about="">
        <dc:format>image/svg+xml</dc:format>
        <dc:type
           rdf:resource="http://purl.org/dc/dcmitype/StillImage" />
        <dc:title />
      </cc:Work>
    </rdf:RDF>
  </metadata>
  <g
     inkscape:label="Layer 1"
     inkscape:groupmode="layer"
     id="layer1">
    <g
       id="wsymb2_clear_sky"
       inkscape:label="#g3802">
      <rect
         ry="0"
         y="-52.651039"
         x="-442.45685"
         height="135.46666"
         width="135.46666"
         id="rect4547"
         style="opacity:1;fill:none;fill-opacity:1;stroke:none;stroke-width:0.44730067;stroke-linecap:butt;stroke-linejoin:miter;stroke-miterlimit:4;stroke-dasharray:none;stroke-dashoffset:0;stroke-opacity:1" />
      <g
         id="g3793">
        <path
           style="fill:#f98412;fill-opacity:1;stroke-width:0.22895476"
           d="m -417.55759,11.066514 c -2.22473,0 -4.01577,1.791045 -4.01577,4.015775 0,2.224731 1.79104,4.015776 4.01577,4.015776 h 8.97101 v -8.031551 z m 76.69712,0 v 8.031551 h 8.97104 c 2.22472,0 4.01577,-1.791045 4.01577,-4.015776 0,-2.22473 -1.79105,-4.015775 -4.01577,-4.015775 z"
           id="rect3677"
           inkscape:connector-curvature="0" />
        <circle
           style="fill:#f98412;fill-opacity:1;stroke-width:0.26458332"
           id="path2979-4"
           cx="-374.72351"
           cy="15.08229"
           r="26.590626" />
        <path
           style="fill:#f98412;fill-opacity:1;stroke-width:0.22895476"
           d="m -370.70773,-27.75179 c 0,-2.22473 -1.79105,-4.01577 -4.01578,-4.01577 -2.22473,0 -4.01578,1.79104 -4.01578,4.01577 v 8.97101 h 8.03156 z m 0,76.69712 h -8.03156 v 8.97104 c 0,2.22472 1.79105,4.01577 4.01578,4.01577 2.22473,0 4.01578,-1.79105 4.01578,-4.01577 z"
           id="rect3677-7"
           inkscape:connector-curvature="0" />
        <path
           style="fill:#f98412;fill-opacity:1;stroke-width:0.22895476"
           d="m -343.10965,-10.642434 c 1.57313,-1.573122 1.57312,-4.106042 0,-5.679164 -1.57313,-1.573121 -4.10605,-1.573128 -5.67917,-7e-6 l -6.34346,6.3434624 5.67917,5.679171 z m -54.23305,54.233055 -5.67917,-5.67917 -6.34348,6.343482 c -1.57312,1.573115 -1.57312,4.106041 0,5.679163 1.57313,1.573121 4.10605,1.573122 5.67917,7e-6 z"
           id="rect3677-7-8"
           inkscape:connector-curvature="0" />
        <path
           style="fill:#f98412;fill-opacity:1;stroke-width:0.22895476"
           d="m -347.27483,48.210136 c 1.57312,1.57313 4.10604,1.57313 5.67916,0 1.57312,-1.57312 1.57313,-4.10604 10e-6,-5.67917 l -6.34347,-6.34346 -5.67917,5.67917 z m -54.23306,-54.23305 5.67917,-5.67917 -6.34348,-6.34348 c -1.57312,-1.57312 -4.10604,-1.57312 -5.67916,0 -1.57312,1.57313 -1.57313,4.10605 -10e-6,5.67917 z"
           id="rect3677-7-8-4"
           inkscape:connector-curvature="0" />
      </g>
    </g>
  </g>
</svg>
