<?xml version="1.0" encoding="UTF-8" standalone="no"?>
<!-- Created with Inkscape (http://www.inkscape.org/) -->

<svg
   xmlns:dc="http://purl.org/dc/elements/1.1/"
   xmlns:cc="http://creativecommons.org/ns#"
   xmlns:rdf="http://www.w3.org/1999/02/22-rdf-syntax-ns#"
   xmlns:svg="http://www.w3.org/2000/svg"
   xmlns="http://www.w3.org/2000/svg"
   xmlns:sodipodi="http://sodipodi.sourceforge.net/DTD/sodipodi-0.dtd"
   xmlns:inkscape="http://www.inkscape.org/namespaces/inkscape"
   width="210mm"
   height="297mm"
   viewBox="0 0 210 297"
   version="1.1"
   id="svg8"
   inkscape:version="0.92.3 (2405546, 2018-03-11)"
   sodipodi:docname="wsymb2_nearly_clear_sky.svg"
   inkscape:export-filename="C:\Users\niclas\dev\vadret-assets\dist\rect993-4-8-2.png"
   inkscape:export-xdpi="23.74"
   inkscape:export-ydpi="23.74">
  <defs
     id="defs2" />
  <sodipodi:namedview
     id="base"
     pagecolor="#9d9d9d"
     bordercolor="#666666"
     borderopacity="1.0"
     inkscape:pageopacity="0"
     inkscape:pageshadow="2"
     inkscape:zoom="0.70710678"
     inkscape:cx="-1520.4256"
     inkscape:cy="959.43839"
     inkscape:document-units="mm"
     inkscape:current-layer="layer1"
     showgrid="false"
     inkscape:window-width="1853"
     inkscape:window-height="1025"
     inkscape:window-x="1147"
     inkscape:window-y="839"
     inkscape:window-maximized="1"
     showborder="false"
     showguides="false"
     inkscape:pagecheckerboard="true" />
  <metadata
     id="metadata5">
    <rdf:RDF>
      <cc:Work
         rdf:about="">
        <dc:format>image/svg+xml</dc:format>
        <dc:type
           rdf:resource="http://purl.org/dc/dcmitype/StillImage" />
        <dc:title />
      </cc:Work>
    </rdf:RDF>
  </metadata>
  <g
     inkscape:label="Layer 1"
     inkscape:groupmode="layer"
     id="layer1">
    <g
       id="wsymb2_nearly_clear_sky"
       inkscape:label="#g4380">
      <rect
         ry="0"
         y="-46.295135"
         x="-439.50195"
         height="135.46666"
         width="135.46666"
         id="rect4547"
         style="opacity:1;fill:none;fill-opacity:1;stroke:none;stroke-width:0.44730067;stroke-linecap:butt;stroke-linejoin:miter;stroke-miterlimit:4;stroke-dasharray:none;stroke-dashoffset:0;stroke-opacity:1" />
      <g
         id="g4369">
        <g
           id="g3793"
           transform="translate(2.9548834,5.102164)">
          <path
             inkscape:connector-curvature="0"
             id="rect3677"
             d="m -417.55759,11.066514 c -2.22473,0 -4.01577,1.791045 -4.01577,4.015775 0,2.224731 1.79104,4.015776 4.01577,4.015776 h 8.97101 v -8.031551 z m 76.69712,0 v 8.031551 h 8.97104 c 2.22472,0 4.01577,-1.791045 4.01577,-4.015776 0,-2.22473 -1.79105,-4.015775 -4.01577,-4.015775 z"
             style="fill:#f98412;fill-opacity:1;stroke-width:0.22895476" />
          <circle
             r="26.590626"
             cy="15.08229"
             cx="-374.72351"
             id="path2979-4"
             style="fill:#f98412;fill-opacity:1;stroke-width:0.26458332" />
          <path
             inkscape:connector-curvature="0"
             id="rect3677-7"
             d="m -370.70773,-27.75179 c 0,-2.22473 -1.79105,-4.01577 -4.01578,-4.01577 -2.22473,0 -4.01578,1.79104 -4.01578,4.01577 v 8.97101 h 8.03156 z m 0,76.69712 h -8.03156 v 8.97104 c 0,2.22472 1.79105,4.01577 4.01578,4.01577 2.22473,0 4.01578,-1.79105 4.01578,-4.01577 z"
             style="fill:#f98412;fill-opacity:1;stroke-width:0.22895476" />
          <path
             inkscape:connector-curvature="0"
             id="rect3677-7-8"
             d="m -343.10965,-10.642434 c 1.57313,-1.573122 1.57312,-4.106042 0,-5.679164 -1.57313,-1.573121 -4.10605,-1.573128 -5.67917,-7e-6 l -6.34346,6.3434624 5.67917,5.679171 z m -54.23305,54.233055 -5.67917,-5.67917 -6.34348,6.343482 c -1.57312,1.573115 -1.57312,4.106041 0,5.679163 1.57313,1.573121 4.10605,1.573122 5.67917,7e-6 z"
             style="fill:#f98412;fill-opacity:1;stroke-width:0.22895476" />
          <path
             inkscape:connector-curvature="0"
             id="rect3677-7-8-4"
             d="m -347.27483,48.210136 c 1.57312,1.57313 4.10604,1.57313 5.67916,0 1.57312,-1.57312 1.57313,-4.10604 10e-6,-5.67917 l -6.34347,-6.34346 -5.67917,5.67917 z m -54.23306,-54.23305 5.67917,-5.67917 -6.34348,-6.34348 c -1.57312,-1.57312 -4.10604,-1.57312 -5.67916,0 -1.57312,1.57313 -1.57313,4.10605 -10e-6,5.67917 z"
             style="fill:#f98412;fill-opacity:1;stroke-width:0.22895476" />
        </g>
        <path
           style="opacity:1;fill:#f9f9f9;fill-opacity:1;stroke:none;stroke-width:0.33900881;stroke-linecap:butt;stroke-linejoin:miter;stroke-miterlimit:4;stroke-dasharray:none;stroke-dashoffset:0;stroke-opacity:1"
           d="m -374.4879,8.6074897 a 24.087861,27.021545 0 0 0 -22.98618,18.9572423 20.576404,23.082427 0 0 0 -4.34794,-0.534375 20.576404,23.082427 0 0 0 -20.57651,23.082222 20.576404,23.082427 0 0 0 9.46822,19.429209 h 83.85871 a 17.944649,20.130146 0 0 0 7.93286,-16.684362 17.944649,20.130146 0 0 0 -16.23863,-20.034423 17.944649,20.130146 0 0 0 -17.71084,-16.961383 17.944649,20.130146 0 0 0 -2.77629,0.255621 24.087861,27.021545 0 0 0 -16.6234,-7.5097513 z"
           id="path825-9-5-5"
           inkscape:connector-curvature="0"
           inkscape:export-filename="C:\Users\niclas\dev\vadret-assets\dist\rect993-4-8-2.png"
           inkscape:export-xdpi="23.74"
           inkscape:export-ydpi="23.74" />
      </g>
    </g>
  </g>
</svg>
