<?xml version="1.0" encoding="UTF-8" standalone="no"?>
<!-- Created with Inkscape (http://www.inkscape.org/) -->

<svg
   xmlns:dc="http://purl.org/dc/elements/1.1/"
   xmlns:cc="http://creativecommons.org/ns#"
   xmlns:rdf="http://www.w3.org/1999/02/22-rdf-syntax-ns#"
   xmlns:svg="http://www.w3.org/2000/svg"
   xmlns="http://www.w3.org/2000/svg"
   xmlns:sodipodi="http://sodipodi.sourceforge.net/DTD/sodipodi-0.dtd"
   xmlns:inkscape="http://www.inkscape.org/namespaces/inkscape"
   width="210mm"
   height="297mm"
   viewBox="0 0 210 297"
   version="1.1"
   id="svg8"
   inkscape:version="0.92.3 (2405546, 2018-03-11)"
   sodipodi:docname="wsymb2_radar.svg"
   inkscape:export-filename="C:\Users\niclas\dev\vadret-assets\dist\rect993-4-8-2.png"
   inkscape:export-xdpi="23.74"
   inkscape:export-ydpi="23.74">
  <defs
     id="defs2" />
  <sodipodi:namedview
     id="base"
     pagecolor="#9d9d9d"
     bordercolor="#666666"
     borderopacity="1.0"
     inkscape:pageopacity="0"
     inkscape:pageshadow="2"
     inkscape:zoom="0.17500001"
     inkscape:cx="-1777.3792"
     inkscape:cy="-158.96186"
     inkscape:document-units="mm"
     inkscape:current-layer="layer1"
     showgrid="false"
     inkscape:window-width="1853"
     inkscape:window-height="1016"
     inkscape:window-x="1147"
     inkscape:window-y="839"
     inkscape:window-maximized="1"
     showborder="false"
     showguides="true"
     inkscape:pagecheckerboard="true"
     inkscape:guide-bbox="true" />
  <metadata
     id="metadata5">
    <rdf:RDF>
      <cc:Work
         rdf:about="">
        <dc:format>image/svg+xml</dc:format>
        <dc:type
           rdf:resource="http://purl.org/dc/dcmitype/StillImage" />
        <dc:title></dc:title>
      </cc:Work>
    </rdf:RDF>
  </metadata>
  <g
     inkscape:label="Layer 1"
     inkscape:groupmode="layer"
     id="layer1">
    <path
       style="opacity:1;fill:none;fill-opacity:1;stroke:#000000;stroke-width:5.29166667;stroke-linecap:square;stroke-linejoin:miter;stroke-miterlimit:4;stroke-dasharray:none;stroke-opacity:1"
       id="path3452"
       r="69.547623"
       cy="275.07739"
       cx="-715.13098" />
    <g
       id="wsymb2_radar"
       inkscape:label="#g3766"
       inkscape:export-filename="/home/niclas/wsymb2_radar.png"
       inkscape:export-xdpi="43.349998"
       inkscape:export-ydpi="43.349998">
      <path
         style="opacity:1;fill:none;fill-opacity:1;stroke:none;stroke-width:0.49528855;stroke-linecap:butt;stroke-linejoin:miter;stroke-miterlimit:4;stroke-dasharray:none;stroke-dashoffset:0;stroke-opacity:1"
         d="m -395.60266,53.89612 h 149.99999 v 149.99999 h -149.99999 z"
         id="rect4547"
         inkscape:connector-curvature="0" />
      <path
         inkscape:connector-curvature="0"
         id="path3472-7"
         d="m -320.60379,69.372431 c -32.83899,0 -59.52256,26.683545 -59.52256,59.522529 0,32.83898 26.68357,59.52484 59.52256,59.52484 32.83895,0 59.52481,-26.68586 59.52481,-59.52484 0,-32.838984 -26.68586,-59.522529 -59.52481,-59.522529 z m 0,5.871107 c 29.66565,0 53.65142,23.985765 53.65142,53.651422 0,29.66568 -23.98577,53.65141 -53.65142,53.65141 -29.66569,0 -53.65142,-23.98573 -53.65142,-53.65141 0,-29.665657 23.98573,-53.651422 53.65142,-53.651422 z m -2.80626,4.134845 v 2.334349 14.145955 c -6.06572,0.510521 -11.6721,2.657558 -16.37192,6.000693 a 5.2057161,5.0687231 0 0 0 -2.23001,-0.49543 5.2057161,5.0687231 0 0 0 -5.20595,5.06895 5.2057161,5.0687231 0 0 0 0.47076,2.09061 c -3.85106,4.93172 -6.3384,10.97677 -6.89292,17.56518 h -16.47972 v 5.61481 h 16.47972 c 0.39084,4.63984 1.73981,9.01052 3.8493,12.91255 l -11.62069,6.17104 a 45.671028,45.671028 0 0 0 17.68503,18.23835 l 6.52882,-11.43087 c 4.11905,2.39066 8.79765,3.91895 13.78758,4.33898 v 16.48027 h 5.61481 v -16.48027 c 6.66715,-0.56169 12.77855,-3.1027 17.74236,-7.03344 a 5.2057161,5.0687231 0 0 0 1.7569,0.30393 5.2057161,5.0687231 0 0 0 5.2054,-5.06892 5.2057161,5.0687231 0 0 0 -0.46504,-2.07861 c 3.33624,-4.69615 5.48008,-10.29533 5.99039,-16.35301 h 16.4803 v -5.61481 h -16.4803 c -0.39062,-4.64053 -1.73928,-9.01189 -3.84928,-12.91428 L -279.795,107.004 a 45.671028,45.671028 0 0 0 -17.68444,-18.238366 l -6.52996,11.432026 c -4.11875,-2.390135 -8.79661,-3.918708 -13.78584,-4.338973 V 79.378383 Z m 0,20.900137 v 25.81017 h -25.80962 c 0.53382,-5.53659 2.63036,-10.60796 5.84529,-14.77038 a 5.2057161,5.0687231 0 0 0 1.3624,0.18291 5.2057161,5.0687231 0 0 0 5.20541,-5.06832 5.2057161,5.0687231 0 0 0 -0.15367,-1.20074 c 3.91771,-2.70981 8.54372,-4.47094 13.55019,-4.95364 z m 5.61481,0 c 4.20357,0.40555 8.13921,1.712 11.61264,3.72485 l -11.61264,20.33013 z m 22.5085,14.95213 c 1.77337,3.28472 2.92543,6.9562 3.30168,10.85804 h -23.74937 z m -53.93293,16.47285 h 23.74534 l -20.44425,10.85631 c -1.77284,-3.28441 -2.92473,-6.95504 -3.30109,-10.85631 z m 31.42443,0 h 25.81018 c -0.48289,5.00427 -2.24357,9.62825 -4.95192,13.54502 a 5.2057161,5.0687231 0 0 0 -1.359,-0.18175 5.2057161,5.0687231 0 0 0 -5.20596,5.06835 5.2057161,5.0687231 0 0 0 0.29647,1.66917 c -4.12833,3.13728 -9.1331,5.1823 -14.58977,5.70885 z m -5.61481,1.75177 v 24.05787 c -4.20393,-0.40539 -8.14033,-1.71113 -11.61379,-3.72428 z"
         style="color:#000000;font-style:normal;font-variant:normal;font-weight:normal;font-stretch:normal;font-size:medium;line-height:normal;font-family:sans-serif;font-variant-ligatures:normal;font-variant-position:normal;font-variant-caps:normal;font-variant-numeric:normal;font-variant-alternates:normal;font-feature-settings:normal;text-indent:0;text-align:start;text-decoration:none;text-decoration-line:none;text-decoration-style:solid;text-decoration-color:#000000;letter-spacing:normal;word-spacing:normal;text-transform:none;writing-mode:lr-tb;direction:ltr;text-orientation:mixed;dominant-baseline:auto;baseline-shift:baseline;text-anchor:start;white-space:normal;shape-padding:0;clip-rule:nonzero;display:inline;overflow:visible;visibility:visible;opacity:1;isolation:auto;mix-blend-mode:normal;color-interpolation:sRGB;color-interpolation-filters:linearRGB;solid-color:#000000;solid-opacity:1;vector-effect:none;fill:#000000;fill-opacity:1;fill-rule:nonzero;stroke:none;stroke-width:4.40376759;stroke-linecap:square;stroke-linejoin:miter;stroke-miterlimit:4;stroke-dasharray:none;stroke-dashoffset:0;stroke-opacity:1;color-rendering:auto;image-rendering:auto;shape-rendering:auto;text-rendering:auto;enable-background:accumulate" />
    </g>
    <path
       style="opacity:1;fill:none;fill-opacity:1;stroke:#000000;stroke-width:5.29166651;stroke-linecap:square;stroke-linejoin:miter;stroke-miterlimit:4;stroke-dasharray:none;stroke-opacity:1"
       id="path3472-7-3"
       r="25.957518"
       cy="180.58333"
       cx="-488.34521"
       d=""
       inkscape:connector-curvature="0" />
    <path
       style="color:#000000;font-style:normal;font-variant:normal;font-weight:normal;font-stretch:normal;font-size:medium;line-height:normal;font-family:sans-serif;font-variant-ligatures:normal;font-variant-position:normal;font-variant-caps:normal;font-variant-numeric:normal;font-variant-alternates:normal;font-feature-settings:normal;text-indent:0;text-align:start;text-decoration:none;text-decoration-line:none;text-decoration-style:solid;text-decoration-color:#000000;letter-spacing:normal;word-spacing:normal;text-transform:none;writing-mode:lr-tb;direction:ltr;text-orientation:mixed;dominant-baseline:auto;baseline-shift:baseline;text-anchor:start;white-space:normal;shape-padding:0;clip-rule:nonzero;display:inline;overflow:visible;visibility:visible;opacity:1;isolation:auto;mix-blend-mode:normal;color-interpolation:sRGB;color-interpolation-filters:linearRGB;solid-color:#000000;solid-opacity:1;vector-effect:none;fill:#000000;fill-opacity:1;fill-rule:nonzero;stroke:none;stroke-width:3.96875;stroke-linecap:square;stroke-linejoin:miter;stroke-miterlimit:4;stroke-dasharray:none;stroke-dashoffset:0;stroke-opacity:1;color-rendering:auto;image-rendering:auto;shape-rendering:auto;text-rendering:auto;enable-background:accumulate"
       d="m -726.97407,393.53665 c -16.48001,0 -29.88086,13.40085 -29.88086,29.88086 0,16.48001 13.40085,29.88281 29.88086,29.88281 16.48001,0 29.88281,-13.4028 29.88281,-29.88281 0,-16.48001 -13.4028,-29.88086 -29.88281,-29.88086 z m 0,3.96875 c 14.33513,0 25.91406,11.57696 25.91406,25.91211 0,14.33514 -11.57893,25.91406 -25.91406,25.91406 -14.33514,0 -25.91211,-11.57892 -25.91211,-25.91406 0,-14.33515 11.57697,-25.91211 25.91211,-25.91211 z"
       id="path3472-7-9"
       inkscape:connector-curvature="0" />
    <path
       style="color:#000000;font-style:normal;font-variant:normal;font-weight:normal;font-stretch:normal;font-size:medium;line-height:normal;font-family:sans-serif;font-variant-ligatures:normal;font-variant-position:normal;font-variant-caps:normal;font-variant-numeric:normal;font-variant-alternates:normal;font-feature-settings:normal;text-indent:0;text-align:start;text-decoration:none;text-decoration-line:none;text-decoration-style:solid;text-decoration-color:#000000;letter-spacing:normal;word-spacing:normal;text-transform:none;writing-mode:lr-tb;direction:ltr;text-orientation:mixed;dominant-baseline:auto;baseline-shift:baseline;text-anchor:start;white-space:normal;shape-padding:0;clip-rule:nonzero;display:inline;overflow:visible;visibility:visible;opacity:1;isolation:auto;mix-blend-mode:normal;color-interpolation:sRGB;color-interpolation-filters:linearRGB;solid-color:#000000;solid-opacity:1;vector-effect:none;fill:#000000;fill-opacity:1;fill-rule:nonzero;stroke:none;stroke-width:5.29166651;stroke-linecap:square;stroke-linejoin:miter;stroke-miterlimit:4;stroke-dasharray:none;stroke-dashoffset:0;stroke-opacity:1;color-rendering:auto;image-rendering:auto;shape-rendering:auto;text-rendering:auto;enable-background:accumulate"
       d="m -726.97407,369.77493 c -29.59504,0 -53.64258,24.04754 -53.64258,53.64258 0,29.59504 24.04754,53.64453 53.64258,53.64453 29.59504,0 53.64453,-24.04949 53.64453,-53.64453 0,-29.59504 -24.04949,-53.64258 -53.64453,-53.64258 z m 0,5.29102 c 26.73521,0 48.35156,21.61635 48.35156,48.35156 0,26.73521 -21.61635,48.35156 -48.35156,48.35156 -26.73521,0 -48.35157,-21.61635 -48.35157,-48.35156 0,-26.73521 21.61636,-48.35156 48.35157,-48.35156 z"
       id="path3472-7-5-4"
       inkscape:connector-curvature="0" />
    <path
       style="color:#000000;font-style:normal;font-variant:normal;font-weight:normal;font-stretch:normal;font-size:medium;line-height:normal;font-family:sans-serif;font-variant-ligatures:normal;font-variant-position:normal;font-variant-caps:normal;font-variant-numeric:normal;font-variant-alternates:normal;font-feature-settings:normal;text-indent:0;text-align:start;text-decoration:none;text-decoration-line:none;text-decoration-style:solid;text-decoration-color:#000000;letter-spacing:normal;word-spacing:normal;text-transform:none;writing-mode:lr-tb;direction:ltr;text-orientation:mixed;dominant-baseline:auto;baseline-shift:baseline;text-anchor:start;white-space:normal;shape-padding:0;clip-rule:nonzero;display:inline;overflow:visible;visibility:visible;opacity:1;isolation:auto;mix-blend-mode:normal;color-interpolation:sRGB;color-interpolation-filters:linearRGB;solid-color:#000000;solid-opacity:1;vector-effect:none;fill:#000000;fill-opacity:1;fill-rule:nonzero;stroke:none;stroke-width:4.20940828;stroke-linecap:square;stroke-linejoin:miter;stroke-miterlimit:4;stroke-dasharray:none;stroke-dashoffset:0;stroke-opacity:1;color-rendering:auto;image-rendering:auto;shape-rendering:auto;text-rendering:auto;enable-background:accumulate"
       d="m -729.50337,378.79251 v 2.10351 39.99219 h -42.0957 v 5.06055 h 42.0957 v 42.0957 h 5.06055 v -42.0957 h 42.0957 v -5.06055 h -42.0957 v -42.0957 z"
       id="rect3588-7"
       inkscape:connector-curvature="0" />
    <path
       style="opacity:1;fill:#000000;fill-opacity:1;stroke:none;stroke-width:3.96875;stroke-linecap:square;stroke-linejoin:miter;stroke-miterlimit:4;stroke-dasharray:none;stroke-opacity:1"
       id="path3621-84"
       sodipodi:type="arc"
       sodipodi:cx="-592.31317"
       sodipodi:cy="596.62415"
       sodipodi:rx="41.159508"
       sodipodi:ry="41.159508"
       sodipodi:start="4.9695441"
       sodipodi:end="5.5332233"
       d="m -581.84506,556.81807 a 41.159508,41.159508 0 0 1 19.64891,11.7513 l -30.11702,28.05478 z"
       transform="rotate(15)" />
    <path
       inkscape:connector-curvature="0"
       style="opacity:1;fill:#000000;fill-opacity:1;stroke:none;stroke-width:3.96875;stroke-linecap:square;stroke-linejoin:miter;stroke-miterlimit:4;stroke-dasharray:none;stroke-opacity:1"
       d="m -747.81273,459.58357 a 41.159509,41.159509 0 0 1 -15.93793,-16.43641 l 36.35192,-19.30397 z"
       id="path3621-8-5" />
    <ellipse
       style="opacity:1;fill:#000000;fill-opacity:1;stroke:none;stroke-width:1.83328748;stroke-linecap:square;stroke-linejoin:miter;stroke-miterlimit:4;stroke-dasharray:none;stroke-opacity:1"
       id="path3656-0"
       cx="-746.2677"
       cy="403.17398"
       rx="4.6914797"
       ry="4.5680194" />
    <ellipse
       style="opacity:1;fill:#000000;fill-opacity:1;stroke:none;stroke-width:1.8332876;stroke-linecap:square;stroke-linejoin:miter;stroke-miterlimit:4;stroke-dasharray:none;stroke-opacity:1"
       id="path3656-9-3"
       cx="-706.87006"
       cy="442.5596"
       rx="4.6914797"
       ry="4.5680194" />
  </g>
</svg>
