<?xml version="1.0" encoding="UTF-8" standalone="no"?>
<!-- Created with Inkscape (http://www.inkscape.org/) -->

<svg
   xmlns:dc="http://purl.org/dc/elements/1.1/"
   xmlns:cc="http://creativecommons.org/ns#"
   xmlns:rdf="http://www.w3.org/1999/02/22-rdf-syntax-ns#"
   xmlns:svg="http://www.w3.org/2000/svg"
   xmlns="http://www.w3.org/2000/svg"
   xmlns:sodipodi="http://sodipodi.sourceforge.net/DTD/sodipodi-0.dtd"
   xmlns:inkscape="http://www.inkscape.org/namespaces/inkscape"
   width="210mm"
   height="297mm"
   viewBox="0 0 210 297"
   version="1.1"
   id="svg8"
   inkscape:version="0.92.3 (2405546, 2018-03-11)"
   sodipodi:docname="wsymb2_heavy_snowfall.svg"
   inkscape:export-filename="C:\Users\niclas\dev\vadret-assets\dist\rect993-4-8-2.png"
   inkscape:export-xdpi="23.74"
   inkscape:export-ydpi="23.74">
  <defs
     id="defs2">
    <inkscape:path-effect
       effect="spiro"
       id="path-effect6421"
       is_visible="true" />
    <inkscape:path-effect
       effect="spiro"
       id="path-effect6417"
       is_visible="true" />
    <inkscape:path-effect
       effect="spiro"
       id="path-effect6417-8"
       is_visible="true" />
    <inkscape:path-effect
       is_visible="true"
       id="path-effect6421-2"
       effect="spiro" />
    <inkscape:path-effect
       is_visible="true"
       id="path-effect6417-5"
       effect="spiro" />
    <inkscape:path-effect
       is_visible="true"
       id="path-effect6417-8-4"
       effect="spiro" />
  </defs>
  <sodipodi:namedview
     id="base"
     pagecolor="#9d9d9d"
     bordercolor="#666666"
     borderopacity="1.0"
     inkscape:pageopacity="0"
     inkscape:pageshadow="2"
     inkscape:zoom="1"
     inkscape:cx="-1444.7754"
     inkscape:cy="817.62372"
     inkscape:document-units="mm"
     inkscape:current-layer="layer1"
     showgrid="false"
     inkscape:window-width="1853"
     inkscape:window-height="1025"
     inkscape:window-x="1147"
     inkscape:window-y="839"
     inkscape:window-maximized="1"
     showborder="false"
     showguides="false"
     inkscape:pagecheckerboard="true" />
  <metadata
     id="metadata5">
    <rdf:RDF>
      <cc:Work
         rdf:about="">
        <dc:format>image/svg+xml</dc:format>
        <dc:type
           rdf:resource="http://purl.org/dc/dcmitype/StillImage" />
        <dc:title />
      </cc:Work>
    </rdf:RDF>
  </metadata>
  <g
     inkscape:label="Layer 1"
     inkscape:groupmode="layer"
     id="layer1">
    <g
       id="wsymb2_heavy_snowfall"
       inkscape:label="#g1111">
      <rect
         ry="0"
         y="-14.035219"
         x="-411.19452"
         height="135.46666"
         width="135.46666"
         id="rect4547"
         style="opacity:1;fill:none;fill-opacity:1;stroke:none;stroke-width:0.44730067;stroke-linecap:butt;stroke-linejoin:miter;stroke-miterlimit:4;stroke-dasharray:none;stroke-dashoffset:0;stroke-opacity:1" />
      <path
         inkscape:export-ydpi="23.74"
         inkscape:export-xdpi="23.74"
         inkscape:export-filename="C:\Users\niclas\dev\vadret-assets\dist\rect993-4-8-2.png"
         inkscape:connector-curvature="0"
         id="path825-9-5-5"
         d="m -348.5632,17.487292 a 24.087861,27.021545 0 0 0 -22.98618,18.957242 20.576404,23.082427 0 0 0 -4.34794,-0.534375 20.576404,23.082427 0 0 0 -20.57651,23.082222 20.576404,23.082427 0 0 0 9.46822,19.429209 h 83.85871 a 17.944649,20.130146 0 0 0 7.93286,-16.684362 17.944649,20.130146 0 0 0 -16.23863,-20.034423 17.944649,20.130146 0 0 0 -17.71084,-16.961383 17.944649,20.130146 0 0 0 -2.77629,0.255621 24.087861,27.021545 0 0 0 -16.6234,-7.509751 z"
         style="opacity:1;fill:#ececec;fill-opacity:1;stroke:none;stroke-width:0.33900881;stroke-linecap:butt;stroke-linejoin:miter;stroke-miterlimit:4;stroke-dasharray:none;stroke-dashoffset:0;stroke-opacity:1" />
      <g
         id="g1083">
        <g
           id="g1058">
          <g
             transform="translate(0.92722894,-3.3072916)"
             id="g2274">
            <circle
               style="fill:#ffffff;fill-opacity:1;stroke:none;stroke-width:0.26458332;stroke-opacity:1"
               id="path10003"
               cx="-374.39197"
               cy="107.29375"
               r="1.6536458" />
            <circle
               style="fill:#ffffff;fill-opacity:1;stroke:none;stroke-width:0.26458332;stroke-opacity:1"
               id="path10003-8"
               cx="-332.41754"
               cy="107.29375"
               r="1.6536459" />
            <circle
               style="fill:#ffffff;fill-opacity:1;stroke:none;stroke-width:0.26458332;stroke-opacity:1"
               id="path10003-8-9"
               cx="-346.40903"
               cy="107.29375"
               r="1.6536459" />
            <circle
               style="fill:#ffffff;fill-opacity:1;stroke:none;stroke-width:0.26458332;stroke-opacity:1"
               id="path10003-8-9-3"
               cx="-360.40048"
               cy="107.29375"
               r="1.6536459" />
            <circle
               style="fill:#ffffff;fill-opacity:1;stroke:none;stroke-width:0.26458332;stroke-opacity:1"
               id="path10003-8-9-3-1"
               cx="-318.42606"
               cy="107.29375"
               r="1.6536459" />
          </g>
          <g
             transform="translate(0.92722894,-3.3072916)"
             id="g2261">
            <circle
               style="fill:#ffffff;fill-opacity:1;stroke:none;stroke-width:0.26458332;stroke-opacity:1"
               id="path10003-3"
               cx="-375.11627"
               cy="87.648445"
               r="1.6536459" />
            <circle
               style="fill:#ffffff;fill-opacity:1;stroke:none;stroke-width:0.26458332;stroke-opacity:1"
               id="path10003-8-6"
               cx="-333.14185"
               cy="87.648445"
               r="1.6536459" />
            <circle
               style="fill:#ffffff;fill-opacity:1;stroke:none;stroke-width:0.26458332;stroke-opacity:1"
               id="path10003-8-9-7"
               cx="-347.13333"
               cy="87.648445"
               r="1.6536459" />
            <circle
               style="fill:#ffffff;fill-opacity:1;stroke:none;stroke-width:0.26458332;stroke-opacity:1"
               id="path10003-8-9-3-5"
               cx="-361.12479"
               cy="87.648445"
               r="1.6536459" />
            <circle
               style="fill:#ffffff;fill-opacity:1;stroke:none;stroke-width:0.26458332;stroke-opacity:1"
               id="path10003-8-9-3-1-3"
               cx="-319.15036"
               cy="87.648445"
               r="1.6536459" />
          </g>
          <g
             transform="translate(0.92722894,-2.0174478)"
             id="g2267">
            <circle
               style="fill:#ffffff;fill-opacity:1;stroke:none;stroke-width:0.26458332;stroke-opacity:1"
               id="path10003-8-6-6"
               cx="-354.40717"
               cy="96.181252"
               r="1.6536459" />
            <circle
               style="fill:#ffffff;fill-opacity:1;stroke:none;stroke-width:0.26458332;stroke-opacity:1"
               id="path10003-8-9-3-5-9"
               cx="-368.36282"
               cy="96.181252"
               r="1.6536459" />
            <circle
               style="fill:#ffffff;fill-opacity:1;stroke:none;stroke-width:0.26458332;stroke-opacity:1"
               id="path10003-8-6-6-2"
               cx="-340.45151"
               cy="96.181252"
               r="1.6536459" />
            <circle
               style="fill:#ffffff;fill-opacity:1;stroke:none;stroke-width:0.26458332;stroke-opacity:1"
               id="path10003-8-6-6-2-7"
               cx="-326.49582"
               cy="96.181252"
               r="1.6536459" />
          </g>
        </g>
        <g
           id="g5879">
          <path
             inkscape:original-d="m -352.5097,4.4824362 c 2.39268,-4.360675 17.36676,9.0485148 26.04958,13.5728458 8.68283,4.524343 2.99059,14.358709 4.48533,21.538144 1.49475,7.179436 6.57033,2.872247 9.85493,4.308443 3.2846,1.436197 -7.32804,1.6951 -10.99261,2.542733 -3.66455,0.84765 -24.38387,-19.253366 -36.57636,-28.879965 -12.1925,-9.6266098 4.78645,-8.7215258 7.17913,-13.0822008 z"
             inkscape:path-effect="#path-effect6421-2"
             inkscape:connector-curvature="0"
             id="path6419"
             d="m -352.5097,4.4824362 c 2.46745,-1.6390547 5.38952,-2.5817685 8.34894,-2.7108674 2.95941,-0.1290989 5.94805,0.5537778 8.56579,1.9402147 2.61775,1.3864369 4.85901,3.4713105 6.44539,5.9729486 1.58639,2.5016379 2.51585,5.4134119 2.68946,8.3705499 0.2306,3.927773 -0.84485,7.828057 -0.80628,11.762404 0.0193,1.967174 0.3283,3.960754 1.17921,5.734477 0.85092,1.773722 2.28405,3.315129 4.1124,4.041263 1.77361,0.704391 3.75326,0.604791 5.62652,0.969139 0.93663,0.182174 1.86445,0.489207 2.64434,1.038975 0.77988,0.549768 1.4024,1.363602 1.58407,2.300329 0.11174,0.576165 0.0536,1.181426 -0.1459,1.733378 -0.1995,0.551952 -0.53802,1.050451 -0.96294,1.455294 -0.84983,0.809685 -2.02401,1.227017 -3.19551,1.300541 -1.1715,0.07353 -2.344,-0.175319 -3.45324,-0.559265 -1.10923,-0.383947 -2.16638,-0.901612 -3.23502,-1.387215 -7.56345,-3.436908 -15.81849,-5.316188 -23.06396,-9.380828 -3.62274,-2.03232 -6.98334,-4.629002 -9.48275,-7.94676 -2.4994,-3.317759 -4.09605,-7.399048 -4.02965,-11.552377 0.0827,-5.173386 2.8693,-10.2193084 7.17913,-13.0822008 z"
             style="fill:#939cb2;fill-opacity:1;stroke:none;stroke-width:0.26458332px;stroke-linecap:butt;stroke-linejoin:miter;stroke-opacity:1" />
          <path
             inkscape:original-d="m -376.53978,41.403165 c -15.90281,-0.685727 16.83824,-14.343729 25.25696,-21.515197 8.41873,-7.171466 6.73548,3.492058 10.1028,5.238483 3.36733,1.746426 3.99148,-1.6217 5.98683,-2.432152 1.99536,-0.810453 9.22997,-4.365667 13.84457,-6.548104 4.61459,-2.182437 -4.98878,18.2097 -7.48356,27.314946 -2.49478,9.105246 -31.80479,-1.372248 -47.7076,-2.057976 z"
             inkscape:path-effect="#path-effect6417-5"
             inkscape:connector-curvature="0"
             id="path6415"
             d="m -376.53978,41.403165 c -1.52836,-3.360625 -1.91016,-7.227811 -1.08348,-10.825905 0.82668,-3.598095 2.85452,-6.906949 5.67538,-9.288627 2.82087,-2.381678 6.41773,-3.825134 10.10147,-4.06964 3.68373,-0.244507 7.43516,0.708718 10.56359,2.668975 1.63617,1.025213 3.09579,2.309816 4.71184,3.366451 1.61606,1.056634 3.4603,1.897402 5.39096,1.872032 1.09418,-0.01438 2.17237,-0.308529 3.17172,-0.754338 0.99934,-0.445809 1.92525,-1.040958 2.81511,-1.677814 2.13897,-1.530814 4.09802,-3.317905 6.34796,-4.680378 1.12498,-0.681237 2.3231,-1.254314 3.59062,-1.605073 1.26752,-0.350759 2.60805,-0.474793 3.90599,-0.262653 1.53939,0.251604 2.99024,0.977683 4.15206,2.018456 1.16182,1.040773 2.03633,2.389247 2.56574,3.856477 1.05882,2.934458 0.70974,6.264382 -0.55761,9.114992 -1.26735,2.850611 -3.39236,5.255103 -5.80688,7.230503 -2.41453,1.9754 -5.12467,3.553047 -7.83687,5.094518 -7.83103,4.450747 -16.09425,8.767971 -25.07783,9.423433 -4.49178,0.327732 -9.10143,-0.305925 -13.17817,-2.220027 -4.07673,-1.914103 -7.58713,-5.16171 -9.4516,-9.261382 z"
             style="fill:#939cb2;fill-opacity:1;stroke:none;stroke-width:0.26458332px;stroke-linecap:butt;stroke-linejoin:miter;stroke-opacity:1" />
          <path
             inkscape:original-d="m -291.95865,48.676053 c 15.90281,-0.685727 -16.83824,-14.343729 -25.25696,-21.515198 -8.41873,-7.171465 -6.73548,3.492058 -10.1028,5.238483 -3.36733,1.746427 -3.99148,-1.6217 -5.98683,-2.432152 -1.99536,-0.810453 -9.22997,-4.365666 -13.84457,-6.548103 -4.61459,-2.182437 4.98878,18.2097 7.48356,27.314947 2.49478,9.105244 31.80479,-1.372249 47.7076,-2.057977 z"
             inkscape:path-effect="#path-effect6417-8-4"
             inkscape:connector-curvature="0"
             id="path6415-6"
             d="m -291.95865,48.676053 c 1.52836,-3.360625 1.91016,-7.227811 1.08348,-10.825905 -0.82668,-3.598095 -2.85452,-6.90695 -5.67538,-9.288627 -2.82087,-2.381678 -6.41773,-3.825134 -10.10147,-4.069641 -3.68373,-0.244507 -7.43516,0.708718 -10.56359,2.668975 -1.63617,1.025213 -3.09579,2.309816 -4.71184,3.366451 -1.61606,1.056634 -3.4603,1.897402 -5.39096,1.872032 -1.09418,-0.01438 -2.17237,-0.308529 -3.17172,-0.754338 -0.99934,-0.445809 -1.92525,-1.040958 -2.81511,-1.677814 -2.13897,-1.530814 -4.09802,-3.317905 -6.34796,-4.680378 -1.12498,-0.681236 -2.3231,-1.254313 -3.59062,-1.605072 -1.26752,-0.350759 -2.60805,-0.474793 -3.90599,-0.262653 -1.53939,0.251604 -2.99024,0.977683 -4.15206,2.018457 -1.16182,1.040773 -2.03633,2.389246 -2.56574,3.856476 -1.05882,2.934459 -0.70974,6.264383 0.55761,9.114993 1.26735,2.85061 3.39236,5.255103 5.80688,7.230503 2.41453,1.9754 5.12467,3.553047 7.83687,5.094518 7.83103,4.450747 16.09425,8.76797 25.07783,9.423433 4.49178,0.327731 9.10143,-0.305925 13.17817,-2.220028 4.07673,-1.914103 7.58713,-5.16171 9.4516,-9.261382 z"
             style="fill:#939cb2;fill-opacity:1;stroke:none;stroke-width:0.26458332px;stroke-linecap:butt;stroke-linejoin:miter;stroke-opacity:1" />
        </g>
        <path
           style="opacity:1;fill:#ececec;fill-opacity:1;stroke:none;stroke-width:0.33900881;stroke-linecap:butt;stroke-linejoin:miter;stroke-miterlimit:4;stroke-dasharray:none;stroke-dashoffset:0;stroke-opacity:1"
           d="m -348.5632,17.487292 a 24.087861,27.021545 0 0 0 -22.98618,18.957242 20.576404,23.082427 0 0 0 -4.34794,-0.534375 20.576404,23.082427 0 0 0 -20.57651,23.082222 20.576404,23.082427 0 0 0 9.46822,19.429209 h 83.85871 a 17.944649,20.130146 0 0 0 7.93286,-16.684362 17.944649,20.130146 0 0 0 -16.23863,-20.034423 17.944649,20.130146 0 0 0 -17.71084,-16.961383 17.944649,20.130146 0 0 0 -2.77629,0.255621 24.087861,27.021545 0 0 0 -16.6234,-7.509751 z"
           id="path825-9-5-5-6"
           inkscape:connector-curvature="0"
           inkscape:export-filename="C:\Users\niclas\dev\vadret-assets\dist\rect993-4-8-2.png"
           inkscape:export-xdpi="23.74"
           inkscape:export-ydpi="23.74" />
      </g>
    </g>
  </g>
</svg>
